<?xml version="1.0" encoding="UTF-8"?>
<!DOCTYPE svg PUBLIC "-//W3C//DTD SVG 1.0//EN" "http://www.w3.org/TR/2001/REC-SVG-20010904/DTD/svg10.dtd">
<!-- Creator: CorelDRAW 2020 (64-Bit) -->
<svg xmlns="http://www.w3.org/2000/svg" xml:space="preserve" width="268px" height="268px" version="1.0" shape-rendering="geometricPrecision" text-rendering="geometricPrecision" image-rendering="optimizeQuality" fill-rule="evenodd" clip-rule="evenodd"
viewBox="0 0 465.5 465.5"
 xmlns:xlink="http://www.w3.org/1999/xlink"
 xmlns:xodm="http://www.corel.com/coreldraw/odm/2003">
 <g id="Capa_x0020_1">
  <metadata id="CorelCorpID_0Corel-Layer"/>
  <g id="_1373136708528">
   <g>
    <g>
     <rect fill="#FF99CC" x="391.5" y="33.1" width="30.2" height="117.8"/>
     <rect fill="#FF99CC" transform="matrix(-4.34097E-14 1.63993 -1.63999 -4.32987E-14 465.515 76.9402)" width="18.4" height="71.8"/>
    </g>
    <path fill="#FF99CC" fill-rule="nonzero" d="M160.9 33.1l166.6 0 0 79.5c1.9,1.4 3.8,2.9 5.7,4.5 4.3,3.6 8.2,7.1 11.7,10.6l4.6 4.5 0 0.2c28.9,31.4 43.4,71.5 43.4,111.5 0,42.2 -16,84.3 -48,116.3l-105.3 105.3 -21.9 -21.9 105.3 -105.3c25.9,-25.9 38.9,-60.1 38.9,-94.4 0,-34.2 -13,-68.4 -38.9,-94.3l-0.6 -0.7c-3.1,-3 -6,-5.6 -8.8,-7.9 -3.1,-2.6 -6.5,-5.1 -10.3,-7.7l-6.8 -4.6 0 -64.5 -135.6 0 0 -31.1zm46.8 285.6l-57.4 -57.4 21.9 -21.9 57.4 57.4 57.4 -57.4 22 21.9 -136.8 136.8 -1 -1 -11 10.9 -47.8 -47.8 0 -0.1c-32,-31.9 -48,-74.1 -48,-116.2 0,-42.1 16,-84.2 48,-116.2l0.2 0.2c2,-2.5 4.5,-4.9 7.2,-7.2 3.2,-2.6 6.9,-5.5 10.1,-7.9l0 -48.6 31 0 0 64.5 -6.9 4.7c-1.5,1 -9.1,6.7 -14.5,11.2l-0.6 -0.7 0 1.2 -4.6 4.5c-25.9,25.9 -38.9,60.1 -38.9,94.3 0,34.3 13,68.5 38.9,94.4l0 0 26.9 26.9 46.5 -46.5zm-68.8 -180.1l0 5.3 0.5 0.6c-0.3,-1 -0.5,-10.3 -0.5,-5.9z"/>
    <circle fill="#FF99CC" cx="228.7" cy="136.3" r="16.6"/>
   </g>
   <rect fill="none" width="465.5" height="465.5"/>
  </g>
 </g>
</svg>
