<?xml version="1.0" encoding="UTF-8"?>
<!DOCTYPE svg PUBLIC "-//W3C//DTD SVG 1.0//EN" "http://www.w3.org/TR/2001/REC-SVG-20010904/DTD/svg10.dtd">
<!-- Creator: CorelDRAW 2020 (64-Bit) -->
<svg xmlns="http://www.w3.org/2000/svg" xml:space="preserve" width="214px" height="308px" version="1.0" shape-rendering="geometricPrecision" text-rendering="geometricPrecision" image-rendering="optimizeQuality" fill-rule="evenodd" clip-rule="evenodd"
viewBox="0 0 946.8 1361.3"
 xmlns:xlink="http://www.w3.org/1999/xlink"
 xmlns:xodm="http://www.corel.com/coreldraw/odm/2003">
 <g id="Capa_x0020_1">
  <metadata id="CorelCorpID_0Corel-Layer"/>
  <g id="_2427158115616">
   <g>
    <rect fill="#FF99CC" x="758.4" width="76.9" height="299.9"/>
    <rect fill="#FF99CC" transform="matrix(-4.34344E-14 1.63993 -1.63999 -4.34328E-14 946.814 111.496)" width="46.9" height="182.9"/>
   </g>
   <path fill="#FF99CC" fill-rule="nonzero" d="M245.5 260.4l424.2 0 0 202.3c4.8,3.6 9.7,7.5 14.7,11.5 10.9,9.1 20.9,18.1 29.8,26.9l11.5 11.6 0 0.5c73.8,79.8 110.6,181.9 110.6,283.9 0,107.3 -40.7,214.6 -122.1,296l-268.1 268.2 -55.8 -55.8 268.1 -268.2c66,-66 99,-153.1 99,-240.2 0,-87.1 -33,-174.2 -99,-240.2l-1.7 -1.6c-7.8,-7.8 -15.3,-14.5 -22.3,-20.3 -7.9,-6.5 -16.6,-13 -26.2,-19.4l-17.4 -11.8 0 -164.4 -345.3 0 0 -79zm119.2 727.1l-146.2 -146.2 55.8 -55.8 146.2 146.2 146.3 -146.2 55.8 55.8 -348.3 348.2 -2.5 -2.5 -27.9 27.9 -121.7 -121.8 0 -0.1c-81.5,-81.5 -122.2,-188.7 -122.2,-295.9 0,-107.2 40.7,-214.5 122.2,-296l0.4 0.5c5.1,-6.3 11.4,-12.4 18.5,-18.2 8,-6.6 17.4,-14 25.5,-20.2l0 -123.8 78.9 0 0 164.4 -17.4 11.8c-3.9,2.6 -23.3,17.2 -37.1,28.5l-1.5 -1.8 0 3.1 -11.6 11.5c-66,66 -99,153.1 -99,240.2 0,87.2 33,174.3 99,240.3l0 -0.1 68.5 68.5 118.3 -118.3zm-175.2 -458.5l0 13.3 1.4 1.7c-0.8,-2.5 -1.4,-26.4 -1.4,-15z"/>
   <circle fill="#FF99CC" cx="418.2" cy="523" r="42.4"/>
  </g>
 </g>
</svg>
