<?xml version="1.0" encoding="UTF-8"?>
<!DOCTYPE svg PUBLIC "-//W3C//DTD SVG 1.0//EN" "http://www.w3.org/TR/2001/REC-SVG-20010904/DTD/svg10.dtd">
<!-- Creator: CorelDRAW 2020 (64-Bit) -->
<svg xmlns="http://www.w3.org/2000/svg" xml:space="preserve" width="300px" height="136px" version="1.0" shape-rendering="geometricPrecision" text-rendering="geometricPrecision" image-rendering="optimizeQuality" fill-rule="evenodd" clip-rule="evenodd"
viewBox="0 0 166.4 75.3"
 xmlns:xlink="http://www.w3.org/1999/xlink"
 xmlns:xodm="http://www.corel.com/coreldraw/odm/2003">
 <g id="Capa_x0020_1">
  <metadata id="CorelCorpID_0Corel-Layer"/>
  <g id="_2427743631424">
   <path fill="#7D69B2" d="M62.2 66.9l-21.9 0 0 -9 0 -6.4c0,-0.7 0.1,-1.3 0.2,-1.9 0.4,-2.3 1.5,-4.3 3,-5.8l0 0c2,-2 4.8,-3.3 7.8,-3.3 3,0 5.7,1.3 7.7,3.3 1.5,1.5 2.6,3.5 3,5.8 0.2,0.6 0.2,1.2 0.2,1.9l0 6.4 0 9zm-62.2 -17.3l21.8 0 0 4.1 0 4.2 10.2 0 0 17.4 30.2 0 0 -8.4 8.4 0 0 -9 36.3 0 0 -8.3 -36.4 0c-0.5,-4.6 -2.5,-8.7 -5.6,-11.7 -3.5,-3.5 -8.3,-5.7 -13.6,-5.7 -5.3,0 -10.2,2.2 -13.7,5.7 -3,3 -5.1,7.1 -5.5,11.7l-1.9 0 0 -41.2 -8.4 0 0 0 -17.6 0 -4.2 0 0 41.2zm18.9 -9l-10.5 0 0 -23.3 10.5 0 0 23.3z"/>
   <path fill="#7D69B2" d="M30.2 8.4l76.7 0 0 4.8 0 31.6 0 4.8 8.3 0 0 -4.8 14.1 0 0 -27.5 0 -4.1 -14.1 0 0 -13.2 -85 0 0 8.4zm85 28l0 -14.9 5.8 0 0 14.9 -5.8 0z"/>
   <path fill="#7D69B2" d="M90.8 34.7c-1.5,1.4 -3.5,2.3 -5.7,2.3 -2.2,0 -4.2,-0.9 -5.7,-2.3 -1.5,-1.5 -2.4,-3.5 -2.4,-5.7 0,-2.3 0.9,-4.3 2.4,-5.7 1.5,-1.5 3.5,-2.4 5.7,-2.4l0 0c2.2,0 4.2,0.9 5.7,2.4 1.4,1.4 2.3,3.4 2.3,5.7 0,2.2 -0.9,4.2 -2.3,5.7zm-17.3 -17.3c-3,2.9 -4.8,7 -4.8,11.6 0,4.5 1.8,8.6 4.8,11.6 3,2.9 7.1,4.8 11.6,4.8 4.5,0 8.6,-1.9 11.6,-4.8l0 0c3,-3 4.8,-7.1 4.8,-11.6 0,-4.6 -1.8,-8.7 -4.8,-11.7l0 0c-3,-2.9 -7.1,-4.7 -11.6,-4.7l0 -0.1c-4.5,0 -8.6,1.9 -11.6,4.8l0 0.1z"/>
   <path fill="#7D69B2" d="M134.9 45.3l23.2 11.8 3.8 -7.5 -23.2 -11.7 -3.8 7.4z"/>
   <path fill="#7D69B2" d="M140.4 33.1l26 0 0 -8.3 -26 0 0 8.3z"/>
   <path fill="#7D69B2" d="M138.7 20.1l23.2 -11.8 -3.8 -7.5 -23.2 11.8 3.8 7.5z"/>
  </g>
 </g>
</svg>
