<?xml version="1.0" encoding="UTF-8"?>
<!DOCTYPE svg PUBLIC "-//W3C//DTD SVG 1.0//EN" "http://www.w3.org/TR/2001/REC-SVG-20010904/DTD/svg10.dtd">
<!-- Creator: CorelDRAW 2020 (64-Bit) -->
<svg xmlns="http://www.w3.org/2000/svg" xml:space="preserve" width="316px" height="316px" version="1.0" shape-rendering="geometricPrecision" text-rendering="geometricPrecision" image-rendering="optimizeQuality" fill-rule="evenodd" clip-rule="evenodd"
viewBox="0 0 186.6 186.6"
 xmlns:xlink="http://www.w3.org/1999/xlink"
 xmlns:xodm="http://www.corel.com/coreldraw/odm/2003">
 <g id="Capa_x0020_1">
  <metadata id="CorelCorpID_0Corel-Layer"/>
  <g id="_1373128839600">
   <rect fill="none" width="186.6" height="186.6"/>
   <g>
    <path fill="#7D69B2" d="M71 124.5l-23.3 0 0 -9.6 0 -6.8c0,-0.7 0,-1.4 0.2,-2.1 0.4,-2.4 1.6,-4.5 3.2,-6.2l0 0c2.1,-2.1 5,-3.4 8.2,-3.4 3.2,0 6.2,1.3 8.3,3.4 1.6,1.7 2.8,3.8 3.2,6.2 0.1,0.7 0.2,1.4 0.2,2.1l0 6.8 0 9.6zm-66.3 -18.5l23.3 0 0 4.5 0 4.4 10.8 0 0 18.5 32.2 0 0 -8.9 8.9 0 0 -9.6 38.7 0 0 -8.9 -38.8 0c-0.5,-4.8 -2.7,-9.2 -5.9,-12.5 -3.8,-3.7 -8.9,-6 -14.6,-6 -5.6,0 -10.8,2.3 -14.5,6 -3.2,3.3 -5.4,7.7 -5.9,12.5l-2 0 0 -43.9 -8.9 0 0 0 -18.8 0 -4.5 0 0 43.9zm20.2 -9.5l-11.3 0 0 -24.9 11.3 0 0 24.9z"/>
    <path fill="#7D69B2" d="M36.9 62.1l81.7 0 0 5.2 0 33.6 0 5.1 8.8 0 0 -5.1 15.1 0 0 -29.2 0 -4.4 -15.1 0 0 -14.1 -90.5 0 0 8.9zm90.5 29.9l0 -15.8 6.1 0 0 15.8 -6.1 0z"/>
    <path fill="#7D69B2" d="M101.4 90.1c-1.5,1.6 -3.7,2.6 -6,2.6 -2.4,0 -4.6,-1 -6.1,-2.6 -1.6,-1.5 -2.5,-3.7 -2.5,-6 0,-2.4 0.9,-4.5 2.5,-6.1 1.5,-1.5 3.7,-2.5 6.1,-2.5l0 0c2.3,0 4.5,0.9 6,2.5 1.6,1.6 2.5,3.7 2.5,6.1 0,2.3 -0.9,4.5 -2.5,6zm-18.4 -18.4c-3.2,3.2 -5.1,7.6 -5.1,12.4 0,4.8 1.9,9.2 5.1,12.3 3.2,3.2 7.5,5.2 12.4,5.2 4.8,0 9.1,-2 12.3,-5.2l0 0c3.2,-3.1 5.1,-7.5 5.1,-12.3 0,-4.8 -1.9,-9.2 -5.1,-12.4l0 0c-3.1,-3.1 -7.5,-5.1 -12.3,-5.1l0 0c-4.9,0 -9.2,2 -12.4,5.1l0 0z"/>
    <path fill="#7D69B2" d="M148.4 101.5l24.7 12.5 4 -7.9 -24.7 -12.5 -4 7.9z"/>
    <path fill="#7D69B2" d="M154.2 88.5l27.7 0 0 -8.9 -27.7 0 0 8.9z"/>
    <path fill="#7D69B2" d="M152.4 74.6l24.7 -12.5 -4 -8 -24.7 12.6 4 7.9z"/>
   </g>
  </g>
 </g>
</svg>
