<?xml version="1.0" encoding="UTF-8"?>
<!DOCTYPE svg PUBLIC "-//W3C//DTD SVG 1.0//EN" "http://www.w3.org/TR/2001/REC-SVG-20010904/DTD/svg10.dtd">
<!-- Creator: CorelDRAW 2020 (64-Bit) -->
<svg xmlns="http://www.w3.org/2000/svg" xml:space="preserve" width="316px" height="316px" version="1.0" shape-rendering="geometricPrecision" text-rendering="geometricPrecision" image-rendering="optimizeQuality" fill-rule="evenodd" clip-rule="evenodd"
viewBox="0 0 186.6 186.6"
 xmlns:xlink="http://www.w3.org/1999/xlink"
 xmlns:xodm="http://www.corel.com/coreldraw/odm/2003">
 <g id="Capa_x0020_1">
  <metadata id="CorelCorpID_0Corel-Layer"/>
  <g id="_1373214343200">
   <rect fill="none" width="186.6" height="186.6"/>
   <g>
    <path fill="#7D69B2" d="M118.7 125.7l0 -17.9c2.1,1.3 4,2.8 5.7,4.5 5.4,5.4 8.8,12.9 8.8,21.1l0 23 8.9 0 0 -23c0,-10.7 -4.4,-20.4 -11.4,-27.4 -5.1,-5.1 -11.6,-8.8 -18.9,-10.5 4.2,-4.5 6.9,-10.6 6.9,-17.3l0 -21.3c0,-7.6 -3.7,-13.1 -9.2,-16.6 0.2,-1 0.3,-1.9 0.3,-2.9 0,-4.4 -1.8,-8.5 -4.7,-11.4 -2.9,-2.9 -6.9,-4.7 -11.4,-4.7 -4.4,0 -8.4,1.8 -11.3,4.7 -2.9,2.9 -4.7,7 -4.7,11.4 0,0.8 0,1.6 0.2,2.4 -5.9,3.5 -9.9,9.2 -9.9,17.1l0 21.3c0,6.7 2.6,12.8 6.9,17.3 -7.3,1.7 -13.9,5.4 -19,10.5 -7,7 -11.4,16.7 -11.4,27.4l0 23 8.9 0 0 -23c0,-8.2 3.4,-15.7 8.8,-21.1 1.7,-1.7 3.7,-3.2 5.8,-4.5l0 19.5c-2.3,0.7 -4.3,2 -5.9,3.6 -2.6,2.6 -4.3,6.3 -4.3,10.3l0 10.1 8.9 0 0 -10.1c0,-1.6 0.7,-3 1.7,-4 1,-1 2.5,-1.7 4,-1.7 1.6,0 3,0.7 4,1.7l0 0c1.1,1 1.7,2.4 1.7,4l0 10.1 8.9 0 0 -10.1c0,-4 -1.6,-7.6 -4.3,-10.3 -1.6,-1.6 -3.6,-2.9 -5.8,-3.6l0 -20.5 16.4 27.7 16.5 -27.7 0 19c-2,0.7 -3.7,1.8 -5.2,3.2 -2.4,2.5 -4,5.9 -4,9.7 0,3.8 1.6,7.2 4.1,9.7 2.4,2.5 5.8,4 9.6,4 3.8,0 7.2,-1.5 9.7,-4l0 0c2.5,-2.5 4,-5.9 4,-9.7 0,-3.7 -1.5,-7.2 -4,-9.6l0 -0.1c-1.5,-1.4 -3.3,-2.6 -5.3,-3.3zm-9.1 13c0,-1.3 0.5,-2.5 1.3,-3.4l0 0c0.9,-0.8 2.1,-1.4 3.4,-1.4 1.3,0 2.5,0.6 3.4,1.4l0 0c0.9,0.9 1.4,2.1 1.4,3.4 0,1.3 -0.5,2.5 -1.4,3.4l0 0c-0.9,0.9 -2.1,1.4 -3.4,1.4 -1.3,0 -2.5,-0.6 -3.4,-1.4l0 0c-0.8,-0.9 -1.3,-2.1 -1.3,-3.4zm0.2 -60.5c0,4.5 -1.9,8.6 -4.9,11.6 -3,3 -7.1,4.8 -11.6,4.8 -4.5,0 -8.6,-1.8 -11.6,-4.8 -3,-3 -4.8,-7.1 -4.8,-11.6l0 -15c5.1,-3.8 8,-2.2 11.7,-0.2 5.1,2.8 11,6.1 21.2,4.2l0 11zm0 -20.1c-8.2,1.9 -13,-0.7 -17,-2.9 -4.9,-2.7 -9.1,-5 -14.9,-2.8 1.5,-3.2 4.6,-5.4 8.2,-6.6 2.3,-0.7 4.7,-1 7.2,-1 2.5,0 5,0.3 7.2,1 5.2,1.7 9.3,5.4 9.3,11.1l0 1.2zm-16.5 45.4l8.1 0 -8.1 13.6 -8 -13.6 8 0zm7.5 -66.8c-2.4,-0.6 -5,-0.8 -7.5,-0.8 -2.2,0 -4.5,0.2 -6.7,0.6 0.2,-1.6 1,-3.1 2.1,-4.2 1.3,-1.3 3,-2.1 5,-2.1 2,0 3.8,0.8 5.1,2.1 1.1,1.2 1.9,2.7 2,4.4z"/>
    <path fill="#7D69B2" d="M133.2 156.4l-79.8 0 0 8.9 79.8 0 0 -8.9z"/>
   </g>
  </g>
 </g>
</svg>
