<?xml version="1.0" encoding="UTF-8"?>
<!DOCTYPE svg PUBLIC "-//W3C//DTD SVG 1.0//EN" "http://www.w3.org/TR/2001/REC-SVG-20010904/DTD/svg10.dtd">
<!-- Creator: CorelDRAW 2020 (64-Bit) -->
<svg xmlns="http://www.w3.org/2000/svg" xml:space="preserve" width="165px" height="244px" version="1.0" shape-rendering="geometricPrecision" text-rendering="geometricPrecision" image-rendering="optimizeQuality" fill-rule="evenodd" clip-rule="evenodd"
viewBox="0 0 49.5 73.1"
 xmlns:xlink="http://www.w3.org/1999/xlink"
 xmlns:xodm="http://www.corel.com/coreldraw/odm/2003">
 <g id="Capa_x0020_1">
  <metadata id="CorelCorpID_0Corel-Layer"/>
  <g id="_2427166955360">
   <path fill="#7D69B2" d="M37.6 53l0 -9.1c1.1,0.6 2.1,1.4 2.9,2.3 2.8,2.7 4.5,6.5 4.5,10.7l0 11.6 4.5 0 0 -11.6c0,-5.5 -2.2,-10.4 -5.8,-13.9 -2.6,-2.6 -5.9,-4.5 -9.6,-5.4 2.2,-2.3 3.5,-5.4 3.5,-8.8l0 -10.8c0,-3.8 -1.9,-6.6 -4.6,-8.4 0.1,-0.5 0.1,-1 0.1,-1.5 0,-2.2 -0.9,-4.2 -2.4,-5.7 -1.5,-1.5 -3.5,-2.4 -5.7,-2.4 -2.3,0 -4.3,0.9 -5.8,2.4 -1.5,1.5 -2.4,3.5 -2.4,5.7 0,0.5 0,0.9 0.1,1.3 -3,1.7 -5,4.6 -5,8.6l0 10.8c0,3.4 1.3,6.5 3.5,8.8 -3.7,0.9 -7,2.8 -9.6,5.4 -3.6,3.5 -5.8,8.4 -5.8,13.9l0 11.6 4.5 0 0 -11.6c0,-4.2 1.7,-8 4.5,-10.7 0.8,-0.9 1.8,-1.7 2.9,-2.3l0 9.9c-1.1,0.3 -2.2,1 -3,1.8 -1.3,1.3 -2.2,3.2 -2.2,5.2l0 5.2 4.6 0 0 -5.2c0,-0.8 0.3,-1.5 0.8,-2 0.5,-0.5 1.3,-0.9 2,-0.9 0.8,0 1.6,0.4 2.1,0.9l0 0c0.5,0.5 0.8,1.2 0.8,2l0 5.2 4.5 0 0 -5.2c0,-2 -0.8,-3.9 -2.1,-5.2 -0.8,-0.8 -1.9,-1.5 -3,-1.8l0 -10.4 8.4 14 8.3 -14 0 9.6c-1,0.4 -1.9,0.9 -2.6,1.7 -1.3,1.2 -2,3 -2,4.9 0,1.9 0.7,3.6 2,4.9 1.3,1.2 3,2 4.9,2 1.9,0 3.6,-0.8 4.9,-2l0 0c1.3,-1.3 2,-3 2,-4.9 0,-1.9 -0.7,-3.7 -2,-4.9l0 0c-0.7,-0.8 -1.7,-1.4 -2.7,-1.7zm-4.6 6.6c0,-0.7 0.3,-1.3 0.7,-1.8l0 0c0.4,-0.4 1,-0.7 1.7,-0.7 0.7,0 1.3,0.3 1.7,0.7l0 0c0.5,0.5 0.7,1.1 0.7,1.8 0,0.6 -0.2,1.2 -0.7,1.7l0 0c-0.4,0.4 -1,0.7 -1.7,0.7 -0.7,0 -1.3,-0.3 -1.7,-0.7l0 0c-0.4,-0.5 -0.7,-1.1 -0.7,-1.7zm0.1 -30.8c0,2.3 -0.9,4.4 -2.5,5.9 -1.5,1.5 -3.6,2.5 -5.8,2.5 -2.3,0 -4.4,-1 -5.9,-2.5 -1.6,-1.5 -2.5,-3.6 -2.5,-5.9l0 -7.5c2.6,-2 4.1,-1.2 5.9,-0.1 2.6,1.4 5.7,3 10.8,2.1l0 5.5zm0 -10.2c-4.2,1 -6.6,-0.3 -8.6,-1.4 -2.5,-1.4 -4.6,-2.5 -7.6,-1.5 0.8,-1.6 2.3,-2.7 4.2,-3.3 1.1,-0.3 2.4,-0.5 3.7,-0.5 1.2,0 2.5,0.2 3.6,0.5 2.6,0.9 4.7,2.8 4.7,5.6l0 0.6zm-8.3 23.1l4 0 -4 6.9 -4.1 -6.9 4.1 0zm3.8 -33.9c-1.3,-0.3 -2.6,-0.4 -3.8,-0.4 -1.2,0 -2.3,0.1 -3.4,0.3 0.1,-0.8 0.4,-1.6 1,-2.1 0.7,-0.7 1.6,-1.1 2.6,-1.1 1,0 1.9,0.4 2.5,1.1 0.6,0.6 1,1.3 1.1,2.2z"/>
   <path fill="#7D69B2" d="M45 68.5l-40.5 0 0 4.6 40.5 0 0 -4.6z"/>
  </g>
 </g>
</svg>
