<?xml version="1.0" encoding="UTF-8"?>
<!DOCTYPE svg PUBLIC "-//W3C//DTD SVG 1.0//EN" "http://www.w3.org/TR/2001/REC-SVG-20010904/DTD/svg10.dtd">
<!-- Creator: CorelDRAW 2020 (64-Bit) -->
<svg xmlns="http://www.w3.org/2000/svg" xml:space="preserve" width="198px" height="185px" version="1.0" shape-rendering="geometricPrecision" text-rendering="geometricPrecision" image-rendering="optimizeQuality" fill-rule="evenodd" clip-rule="evenodd"
viewBox="0 0 71.8 67.2"
 xmlns:xlink="http://www.w3.org/1999/xlink"
 xmlns:xodm="http://www.corel.com/coreldraw/odm/2003">
 <g id="Capa_x0020_1">
  <metadata id="CorelCorpID_0Corel-Layer"/>
  <g id="_2427157687136">
   <path fill="#7D69B2" d="M34 35.9l6.9 -6.8 -3.9 -3.9 -3 3 -0.8 -0.9 1.1 -1.9c3.1,-6.6 1.5,-15 -3.7,-20.1 -7,-7.1 -18.3,-7.1 -25.3,0 -7.9,7.9 -6.7,20.7 2,27.1l5.9 2.8 -0.5 2.5c-0.6,5 1,10.1 4.7,13.8l11.9 11.9c2.5,2.5 5.3,3.8 8.7,3.8 5.7,0 8.2,-3.3 11.9,-6.9l1.6 1.7c5.1,5 13.4,5 18.5,0l1.8 -1.9 -3.9 -3.9 -1.8 1.9c-3,2.9 -7.8,2.9 -10.7,0l-5.5 -5.6 -7.3 7.3c-2.5,2.5 -6.6,2.5 -9.1,0l-12.2 -12.2c-3.1,-3.1 -4,-7.7 -2.5,-11.7 3.7,0 8,-1.9 10.8,-4.4l4.4 4.4zm-7.3 -26.7c4.9,4.8 4.9,12.7 0,17.5 -7.8,7.8 -21.2,2.3 -21.2,-8.8 0,-11 13.4,-16.5 21.2,-8.7z"/>
   <path fill="#7D69B2" d="M53.9 41.8l0 0zm2.3 -29.3l0 0zm-13 21.8c0,1.7 -0.5,3.2 -1.5,4.6l-1.5 1.5 0.1 0 -4.5 4.5c-0.6,0.6 -1.6,0.6 -2.2,0l-4.4 -4.4 -3.9 3.9 4.4 4.4c2.7,2.7 7.2,2.7 10,0l5.2 -5.3c1.6,-1.5 2.6,-3.2 5.3,-3.2l0 0c1.3,0 2.7,0.5 3.7,1.6l14 14 3.9 -3.9 -13.9 -13.9c1.9,-2.9 2.4,-6.4 1.6,-9.7l-0.1 -0.5 -0.1 -0.4 -0.2 -0.6 -0.1 -0.1 -0.1 -0.3 -0.3 -0.7 -0.1 -0.1 -0.2 -0.5 -0.4 -0.6 -0.1 -0.2 -0.7 -0.9 -0.9 -1 -1 -1.2 -0.4 -0.8 -0.1 -0.1 -0.3 -0.8 0 -0.1 -0.1 -0.5 -0.2 -1.5 0 0c0,-1.8 0.7,-3.7 2.1,-5 2.7,-2.8 7.2,-2.8 10,0l3.9 -3.9c-2.5,-2.5 -5.7,-3.7 -8.9,-3.7 -5.7,0 -8.8,3.7 -8.9,3.7 -2.5,2.4 -3.7,5.6 -3.7,8.9l0 0 0.3 2.5 0.1 0.5 0.1 0.4 0.1 0.3 0 0.1 0.1 0.2 0.1 0.3 0 0.1 0.1 0.2 0.1 0.3 0.3 0.7 0.1 0.1 0.2 0.4 0.1 0.1 0.1 0.2 0 0.1 0.5 0.7 0.2 0.3 0.5 0.7 0.7 0.7 0.4 0.4 0.5 0.7 0.1 0.2 0.2 0.3 0 0.1 0.3 0.6 0.1 0.2 0 0 0.1 0.4 0.1 0.1 0 0.3 0.1 0.1 0.1 0.5c0.2,1.7 -0.1,3.5 -1.1,5 -1,-0.3 -2,-0.5 -3,-0.5l0 0c-0.5,0 -1,0.1 -1.5,0.1l0 -0.6 0 0c0,-3.3 -1.2,-6.6 -3.7,-9.1l-3.9 3.9c1.4,1.5 2.1,3.3 2.1,5.2l0 0z"/>
  </g>
 </g>
</svg>
