<?xml version="1.0" encoding="UTF-8"?>
<!DOCTYPE svg PUBLIC "-//W3C//DTD SVG 1.0//EN" "http://www.w3.org/TR/2001/REC-SVG-20010904/DTD/svg10.dtd">
<!-- Creator: CorelDRAW 2020 (64-Bit) -->
<svg xmlns="http://www.w3.org/2000/svg" xml:space="preserve" width="316px" height="316px" version="1.0" shape-rendering="geometricPrecision" text-rendering="geometricPrecision" image-rendering="optimizeQuality" fill-rule="evenodd" clip-rule="evenodd"
viewBox="0 0 186.6 186.6"
 xmlns:xlink="http://www.w3.org/1999/xlink"
 xmlns:xodm="http://www.corel.com/coreldraw/odm/2003">
 <g id="Capa_x0020_1">
  <metadata id="CorelCorpID_0Corel-Layer"/>
  <g id="_1373214000880">
   <rect fill="none" width="186.6" height="186.6"/>
   <g>
    <path fill="#7D69B2" d="M136.7 90.1c-2.4,2.4 -5.9,4 -9.6,4 -3.8,0 -7.2,-1.6 -9.6,-4 -2.5,-2.5 -4,-5.9 -4,-9.7 0,-3.7 1.5,-7.1 4,-9.6 2.4,-2.5 5.8,-4 9.6,-4 3.7,0 7.2,1.5 9.6,4 2.5,2.5 4,5.9 4,9.6 0,3.8 -1.5,7.2 -4,9.7zm12.5 -14.1c-0.6,-2.9 -1.8,-5.6 -3.3,-8l6 -6.1c1.8,-1.8 1.8,-4.6 0,-6.3 -1.7,-1.8 -4.5,-1.8 -6.3,0l-6 6.1c-2.4,-1.6 -5.1,-2.8 -8.1,-3.3l0 -8.7c0,-2.4 -2,-4.4 -4.4,-4.4 -2.5,0 -4.5,2 -4.5,4.4l0 8.7c-2.9,0.5 -5.6,1.7 -8,3.3l-6.1 -6.1c-1.7,-1.8 -4.5,-1.8 -6.3,0 -1.7,1.7 -1.7,4.5 0,6.3l6.1 6.1c-1.6,2.4 -2.7,5.1 -3.3,8l-8.6 0c-2.5,0 -4.5,2 -4.5,4.4 0,2.5 2,4.5 4.5,4.5l8.6 0c0.6,2.9 1.7,5.6 3.3,8l-6.1 6.1c-1.7,1.7 -1.7,4.6 0,6.3 1.8,1.7 4.6,1.7 6.3,0l6.1 -6.1c2.4,1.6 5.1,2.7 8,3.3l0 8.6c0,2.5 2,4.5 4.5,4.5 2.4,0 4.4,-2 4.4,-4.5l0 -8.6c3,-0.6 5.7,-1.7 8.1,-3.3l6 6.1c1.8,1.7 4.6,1.7 6.3,0 1.8,-1.7 1.8,-4.6 0,-6.3l-6 -6.1c1.5,-2.4 2.7,-5.1 3.3,-8l8.6 0c2.4,0 4.4,-2 4.4,-4.5 0,-2.4 -2,-4.4 -4.4,-4.4l-8.6 0z"/>
    <path fill="#7D69B2" d="M137.4 120.8c-1.7,-1.8 -4.5,-1.8 -6.3,0l-4.3 4.3c-1.7,-1 -3.5,-1.7 -5.4,-2.2l0 -6.2c0,-2.4 -2,-4.4 -4.5,-4.4 -2.4,0 -4.4,2 -4.4,4.4l0 6.2c-1.9,0.5 -3.7,1.2 -5.4,2.2l-4.4 -4.3c-1.7,-1.8 -4.5,-1.8 -6.3,0 -1.7,1.7 -1.7,4.5 0,6.3l4.4 4.3c-1,1.7 -1.8,3.5 -2.2,5.4l-6.2 0c-2.4,0 -4.4,2 -4.4,4.5 0,2.4 2,4.4 4.4,4.4l6.2 0c0.4,1.9 1.2,3.8 2.2,5.4l-4.4 4.4c-1.7,1.7 -1.7,4.5 0,6.3 1.8,1.7 4.6,1.7 6.3,0l4.4 -4.4c1.7,1 3.5,1.8 5.4,2.2l0 6.2c0,2.5 2,4.5 4.4,4.5 2.5,0 4.5,-2 4.5,-4.5l0 -6.2c1.9,-0.4 3.7,-1.2 5.4,-2.2l4.3 4.4c1.8,1.7 4.6,1.7 6.3,0 1.8,-1.8 1.8,-4.6 0,-6.3l-4.3 -4.4c1,-1.6 1.8,-3.5 2.2,-5.4l6.2 0c2.4,0 4.4,-2 4.4,-4.4 0,-2.5 -2,-4.5 -4.4,-4.5l-6.2 0c-0.4,-1.9 -1.2,-3.7 -2.2,-5.4l4.3 -4.3c1.8,-1.8 1.8,-4.6 0,-6.3zm-13.4 13.4c1.8,1.8 2.9,4.3 2.9,7.1 0,2.7 -1.1,5.2 -2.9,7 -1.8,1.8 -4.3,3 -7.1,3 -2.7,0 -5.2,-1.2 -7,-3 -1.8,-1.8 -2.9,-4.3 -2.9,-7 0,-2.8 1.1,-5.3 2.9,-7.1 1.8,-1.8 4.3,-2.9 7,-2.9 2.8,0 5.3,1.1 7.1,2.9z"/>
    <g>
     <path fill="#7D69B2" d="M47.4 61.4l24.6 0 0 12 -12.3 0 0 8.9 12.3 0 0 10.1 -12.3 0 0 8.9 12.3 0 0 10.1 -12.3 0 0 8.9 12.3 0 0 17.1 9 0 0 -76 14 0 0 -8.9 -14 0 -16.8 0 0 -29 11.2 0 0 -8.9 -31.4 0 0 8.9 11.3 0 0 29 -7.9 0 0 8.9z"/>
     <path fill="#7D69B2" d="M47.4 137.4l0 -76 -8.9 0 0 84.9 16.8 0 0 25.7 8.9 0 0 -25.7 7.8 0 0 -8.9 -24.6 0z"/>
     <path fill="#7D69B2" d="M24.4 61.4l14.1 0 0 -8.9 -14.1 0 0 8.9z"/>
    </g>
   </g>
  </g>
 </g>
</svg>
