<?xml version="1.0" encoding="UTF-8"?>
<!DOCTYPE svg PUBLIC "-//W3C//DTD SVG 1.0//EN" "http://www.w3.org/TR/2001/REC-SVG-20010904/DTD/svg10.dtd">
<!-- Creator: CorelDRAW 2020 (64-Bit) -->
<svg xmlns="http://www.w3.org/2000/svg" xml:space="preserve" width="160px" height="188px" version="1.0" shape-rendering="geometricPrecision" text-rendering="geometricPrecision" image-rendering="optimizeQuality" fill-rule="evenodd" clip-rule="evenodd"
viewBox="0 0 46.3 54.4"
 xmlns:xlink="http://www.w3.org/1999/xlink"
 xmlns:xodm="http://www.corel.com/coreldraw/odm/2003">
 <g id="Capa_x0020_1">
  <metadata id="CorelCorpID_0Corel-Layer"/>
  <g id="_2427743571472">
   <path fill="#7D69B2" d="M4.4 0l0 4.4 18.7 0 18.8 0 0 -4.4 -37.5 0z"/>
   <path fill="#7D69B2" d="M4.4 4.4l-4.4 0 0 21.7c0,6.1 2.3,11.5 6,15.9 4.2,5.3 10.3,9.3 16.2,12l0.9 0.4 0.9 -0.4c6,-2.7 12,-6.7 16.3,-12 3.6,-4.4 6,-9.8 6,-15.9l0 -21.7 -4.4 0 0 21.7c0,5.1 -2,9.5 -5,13.2 -3.6,4.4 -8.6,7.9 -13.8,10.3 -5.1,-2.4 -10.2,-5.9 -13.8,-10.3 -3,-3.7 -4.9,-8.1 -4.9,-13.2l0 -21.7z"/>
   <path fill="#7D69B2" d="M18.2 23.8c0,-1.3 0.6,-2.5 1.5,-3.4 0.9,-0.9 2.1,-1.5 3.4,-1.5 1.4,0 2.6,0.6 3.5,1.5 0.9,0.9 1.4,2.1 1.4,3.4 0,1.4 -0.5,2.6 -1.4,3.5 -0.9,0.9 -2.1,1.5 -3.5,1.5 -1.3,0 -2.5,-0.6 -3.4,-1.5 -0.9,-0.9 -1.5,-2.1 -1.5,-3.5zm-2 -10c-0.9,-0.9 -2.3,-0.9 -3.1,0 -0.9,0.8 -0.9,2.2 0,3.1l2.1 2.1c-0.5,0.8 -0.9,1.7 -1.1,2.7l-3 0c-1.2,0 -2.2,0.9 -2.2,2.1 0,1.3 1,2.2 2.2,2.2l3 0c0.2,1 0.6,1.9 1.1,2.7l-2.1 2.1c-0.9,0.9 -0.9,2.3 0,3.1 0.8,0.9 2.2,0.9 3.1,0l2.1 -2.1c0.8,0.5 1.7,0.8 2.6,1.1l0 3c0,1.2 1,2.2 2.2,2.2 1.2,0 2.2,-1 2.2,-2.2l0 -3c1,-0.3 1.9,-0.6 2.7,-1.1l2.1 2.1c0.9,0.9 2.2,0.9 3.1,0 0.9,-0.8 0.9,-2.2 0,-3.1l-2.1 -2.1c0.5,-0.8 0.8,-1.7 1.1,-2.7l3 0c1.2,0 2.2,-0.9 2.2,-2.2 0,-1.2 -1,-2.1 -2.2,-2.1l-3 0c-0.3,-1 -0.6,-1.9 -1.1,-2.7l2.1 -2.1c0.9,-0.9 0.9,-2.3 0,-3.1 -0.9,-0.9 -2.2,-0.9 -3.1,0l-2.1 2.1c-0.8,-0.5 -1.7,-0.8 -2.7,-1.1l0 -3c0,-1.2 -1,-2.2 -2.2,-2.2 -1.2,0 -2.2,1 -2.2,2.2l0 3c-0.9,0.3 -1.8,0.6 -2.6,1.1l-2.1 -2.1z"/>
  </g>
 </g>
</svg>
