<?xml version="1.0" encoding="UTF-8"?>
<!DOCTYPE svg PUBLIC "-//W3C//DTD SVG 1.0//EN" "http://www.w3.org/TR/2001/REC-SVG-20010904/DTD/svg10.dtd">
<!-- Creator: CorelDRAW 2020 (64-Bit) -->
<svg xmlns="http://www.w3.org/2000/svg" xml:space="preserve" width="268px" height="268px" version="1.0" shape-rendering="geometricPrecision" text-rendering="geometricPrecision" image-rendering="optimizeQuality" fill-rule="evenodd" clip-rule="evenodd"
viewBox="0 0 326.9 326.9"
 xmlns:xlink="http://www.w3.org/1999/xlink"
 xmlns:xodm="http://www.corel.com/coreldraw/odm/2003">
 <g id="Capa_x0020_1">
  <metadata id="CorelCorpID_0Corel-Layer"/>
  <g id="_1373126042336">
   <g>
    <path fill="#FF99CC" d="M156.1 172.6l26.5 -26.5 -15 -15.1 -11.4 11.4 -3.2 -3.2 4 -7.5c12.3,-25.7 6.1,-58.1 -14.1,-78.2 -27.1,-27.2 -71.2,-27.2 -98.4,0 -30.7,30.7 -25.7,80.6 8.1,105.4 7,4.8 14.6,8.4 22.7,11l-2 9.6c-2.4,19.3 4,39.2 18.2,53.4l46.2 46.1c9.8,9.8 20.7,14.8 33.9,14.8 22.1,0 31.9,-12.6 45.9,-26.7l6.5 6.4c19.7,19.8 51.8,19.8 71.5,0l7.3 -7.2 -15.1 -15.2 -7.3 7.3c-11.3,11.4 -29.9,11.4 -41.3,0l-21.6 -21.6 -28.3 28.4c-9.7,9.6 -25.5,9.6 -35.2,0l-47.3 -47.4c-12.1,-12.1 -15.5,-30 -9.7,-45.5 14.3,0 31.2,-7.3 42.1,-16.8l17 17.1zm-28.3 -104c18.8,18.9 18.8,49.4 0,68.2 -30.3,30.3 -82.3,8.8 -82.3,-34.1 0,-42.8 52,-64.3 82.3,-34.1z"/>
    <path fill="#FF99CC" d="M233.2 195.5l0 0zm8.9 -114l0 0zm-50.3 84.8c0,6.5 -2,12.4 -5.8,17.6l-5.9 5.9 0.2 0.2 -17.3 17.3c-2.4,2.4 -6.3,2.4 -8.7,0l-16.9 -16.9 -15.1 15.1 16.9 16.9c10.7,10.7 28.2,10.7 38.9,0l20.3 -20.3c6.1,-6 9.8,-12.5 20.5,-12.5l0 0.1c5.2,0 10.4,1.9 14.2,5.8l54.6 54.6 15.1 -15.1 -54 -54c7.2,-11.4 9.3,-24.7 6.2,-37.8l-0.5 -1.7 -0.5 -1.7 -0.7 -2.2 -0.3 -0.6 -0.4 -1.1 -1.2 -2.7 -0.3 -0.5 -0.9 -1.6 -1.5 -2.6 -0.3 -0.5 -2.5 -3.5 -3.8 -4.2 -3.6 -4.6 -1.8 -3.2 -0.2 -0.3 -1.1 -3.1 -0.1 -0.3 -0.5 -2 -0.7 -5.9 0 0c0,-7 2.7,-14 8,-19.4 10.7,-10.6 28.2,-10.6 38.8,0l15.2 -15.1c-9.5,-9.5 -22.1,-14.3 -34.6,-14.3 -22,0 -34.2,14.3 -34.5,14.3 -9.5,9.5 -14.2,22 -14.2,34.5l-0.1 0 1.1 9.9 0.3 1.8 0.5 1.7 0.3 1.1 0.2 0.6 0.2 0.5 0.4 1.1 0.2 0.6 0.2 0.6 0.4 1.1 1.3 2.7 0.2 0.5 0.9 1.6 0.3 0.5 0.3 0.5 0.3 0.6 1.6 2.5 1.1 1.5 2 2.4 2.5 2.7 1.4 1.6 2.3 3 0.3 0.6 0.7 1.2 0.2 0.3 1.1 2.4 0.2 0.6 0.2 0.3 0.4 1.3 0.2 0.6 0.2 1 0.2 0.6 0.3 1.7c1,6.8 -0.4,13.5 -4.2,19.3 -3.7,-1.1 -7.7,-1.6 -11.6,-1.6l0 0c-1.9,0 -3.8,0.1 -5.7,0.4l0 -2.4 0 0c0,-12.8 -4.8,-25.5 -14.3,-35.3l-15.2 15.1c5.5,5.7 8.2,12.9 8.2,20.2l-0.1 0z"/>
   </g>
   <rect fill="none" width="326.9" height="326.9"/>
  </g>
 </g>
</svg>
