<?xml version="1.0" encoding="UTF-8"?>
<!DOCTYPE svg PUBLIC "-//W3C//DTD SVG 1.0//EN" "http://www.w3.org/TR/2001/REC-SVG-20010904/DTD/svg10.dtd">
<!-- Creator: CorelDRAW 2020 (64-Bit) -->
<svg xmlns="http://www.w3.org/2000/svg" xml:space="preserve" width="229px" height="214px" version="1.0" shape-rendering="geometricPrecision" text-rendering="geometricPrecision" image-rendering="optimizeQuality" fill-rule="evenodd" clip-rule="evenodd"
viewBox="0 0 5370.8 5023.2"
 xmlns:xlink="http://www.w3.org/1999/xlink"
 xmlns:xodm="http://www.corel.com/coreldraw/odm/2003">
 <g id="Capa_x0020_1">
  <metadata id="CorelCorpID_0Corel-Layer"/>
  <g id="_2427157660880">
   <path fill="#FF99CC" d="M2543.7 2687.1l511.2 -511.1 -290.7 -290.5 -219.6 219.6 -60.7 -60.7 77.1 -144.3c235.9,-495.4 116.3,-1119.7 -271.3,-1507.2 -523.8,-523.9 -1373,-523.8 -1896.9,0 -590.7,590.6 -495.9,1553.5 155.4,2030.4 134.9,92.9 282.2,161.1 438.4,211.9l-37.9 185.5c-47.5,371.9 75.9,754.7 350.7,1029.5l888.5 888.4c188.8,188.8 400.1,284.6 654.6,284.6 425.8,0 613.6,-243.6 884.9,-514.9l124.3 124.3c380,379.9 998.8,380 1378.6,0l140.5 -140.4 -291.4 -291.5 -140.5 140.5c-218.9,218.9 -576.8,218.9 -795.7,0l-415.8 -415.8 -545.6 545.7c-186.6,186.5 -491.9,186.6 -678.6,0l-912.4 -912.4c-233.5,-233.6 -298.6,-578.8 -185.5,-877.6 275.2,0 599.5,-140.4 810.1,-322.2l328.3 328.2zm-545.4 -2002.8c362.8,362.9 362.8,951.2 0,1314.1 -583.4,583.3 -1586.2,168.7 -1586.2,-657 0,-825.8 1002.8,-1240.5 1586.2,-657.1z"/>
   <path fill="#FF99CC" d="M4028.4 3128.6l0 0zm172.7 -2196.3l0 0zm-969.3 1634.4c-0.7,124.9 -38.1,238 -112.5,338.5l-113.1 114.2 3.3 3.4 -333.1 333.1c-45.7,45.7 -121.1,45.7 -166.8,0l-326 -326 -291.5 291.4 326 326c206.7,206.7 543.1,206.7 749.7,0l391.4 -391.3c116.2,-116.3 188.9,-240.5 394.5,-240.5l0 0.8c100,0 199.6,37.5 274.3,112.7l1051.4 1051.4 291.4 -291.4 -1040.4 -1040.4c138.1,-218.8 177.8,-475.5 118.7,-727.4l-8.7 -33 -9.9 -32.7 -15 -43.1 -4.1 -10.7 -8.6 -21.2 -23.8 -52.4 -5.2 -10.3 -16.3 -30.6 -29.8 -50 -6.4 -9.8 -48.3 -66.8 -71.8 -80.5 -71 -88.1 -34.3 -62.8 -2.7 -5.9 -22.5 -60.1 -1.9 -6.1 -9.5 -37.2 -12.2 -113.7 -0.8 0c0,-135.1 51.6,-270.7 154.4,-374.3 205.2,-204.7 542.7,-205.1 748.2,0.4l291.5 -291.5c-183.1,-183.1 -424.3,-274.7 -665.4,-274.7 -424.4,0 -660.1,274.7 -665.4,274.7 -182.6,182.7 -273.9,423.9 -273.9,665.4l-0.8 0 19.4 191 7.4 33.3 8.7 32.9 6.5 21.9 3.4 10.9 3.5 10.8 7.5 21.5 4 10.8 4.1 10.7 8.6 21.2 23.8 52.3 5.1 10.4 16.3 30.6 5.8 10.1 5.8 10 6 10 31.8 49.1 20.7 28.6 37.3 46.3 49.1 53 27.5 29.7 43.4 58.4 6.9 11.1 12.9 22.6 3.1 5.8 21.6 46.9 4.7 12 2.2 6 8.1 24.3 3.7 12.3 4.8 18.6 2.8 12.4 5.9 31.4c19.2,131.5 -6.7,261.3 -79.3,372.9 -73.2,-21.2 -148.8,-31.9 -224.3,-31.9l0 0.8c-37,0 -74,2.6 -110.8,7.6l1.1 -45.8 -0.8 0c0.1,-246.6 -91.9,-493 -276,-681.3l-291.6 291.5c104.8,110.1 157,247.8 157,389.8l-0.8 0z"/>
  </g>
 </g>
</svg>
