<?xml version="1.0" encoding="UTF-8"?>
<!DOCTYPE svg PUBLIC "-//W3C//DTD SVG 1.0//EN" "http://www.w3.org/TR/2001/REC-SVG-20010904/DTD/svg10.dtd">
<!-- Creator: CorelDRAW 2020 (64-Bit) -->
<svg xmlns="http://www.w3.org/2000/svg" xml:space="preserve" width="316px" height="316px" version="1.0" shape-rendering="geometricPrecision" text-rendering="geometricPrecision" image-rendering="optimizeQuality" fill-rule="evenodd" clip-rule="evenodd"
viewBox="0 0 186.6 186.6"
 xmlns:xlink="http://www.w3.org/1999/xlink"
 xmlns:xodm="http://www.corel.com/coreldraw/odm/2003">
 <g id="Capa_x0020_1">
  <metadata id="CorelCorpID_0Corel-Layer"/>
  <g id="_1373128851456">
   <rect fill="none" width="186.6" height="186.6"/>
   <g>
    <path fill="#7D69B2" fill-rule="nonzero" d="M144.2 71.1c3.3,2.2 5.9,5.1 7.8,8.6 1.8,3.3 2.8,7.1 2.8,11.1 0,4.1 -1,7.9 -2.8,11.2 -1.9,3.5 -4.5,6.4 -7.8,8.6l-4.9 -7.4c2,-1.4 3.7,-3.2 4.8,-5.4 1.1,-2 1.8,-4.4 1.8,-7 0,-2.5 -0.7,-4.9 -1.8,-6.9 -1.1,-2.2 -2.8,-4 -4.8,-5.4l4.9 -7.4z"/>
    <path fill="#7D69B2" fill-rule="nonzero" d="M153.7 55.5c5.7,3.9 10.5,9.2 13.8,15.4 3.2,6 5,12.8 5,19.9 0,7.2 -1.8,14.1 -5,20 -3.3,6.2 -8.1,11.5 -13.8,15.4l-5 -7.4c4.6,-3.1 8.4,-7.3 11,-12.1 2.5,-4.7 3.9,-10.1 3.9,-15.9 0,-5.7 -1.4,-11.1 -3.9,-15.8 -2.6,-4.8 -6.4,-9 -11,-12.1l5 -7.4z"/>
    <path fill="#7D69B2" d="M121.3 114.3l0 0zm-16.2 3.7l-10.5 -17.1 -35.1 0 0 -5.6 -8.9 0 0 14.5 39 0 10.5 17.1 12.3 0c5.9,0 11.3,-2.4 15.2,-6.3l0 0c3.9,-3.9 6.3,-9.2 6.3,-15.2l0 -29.1c0,-6 -2.4,-11.3 -6.3,-15.2l0 0c-3.9,-3.9 -9.3,-6.3 -15.2,-6.3l-12.3 0 -10.5 17.1 -39 0 0 14.5 8.9 0 0 -5.6 35.1 0 10.5 -17.1 2.9 0 0 8.2 8.9 0 0 -7.4c1.7,0.6 3.2,1.6 4.4,2.9 2.3,2.2 3.7,5.4 3.7,8.9l0 29.1c0,3.5 -1.4,6.6 -3.7,8.9 -1.2,1.3 -2.7,2.3 -4.4,2.9l0 -36.4 -8.9 0 0 37.2 -2.9 0z"/>
    <path fill="#7D69B2" d="M50.6 95.3l0 -8.9 -13.8 0c-6.2,0 -11.9,2.6 -16,6.7 -4.1,4.1 -6.7,9.8 -6.7,16 0,6.3 2.6,12 6.7,16.1 4.1,4.1 9.8,6.7 16,6.7l18.3 0 0 -9 -18.3 0c-3.7,0 -7.2,-1.5 -9.7,-4 -2.5,-2.5 -4.1,-6 -4.1,-9.8 0,-3.8 1.6,-7.2 4.1,-9.7 2.5,-2.5 6,-4.1 9.7,-4.1l13.8 0z"/>
   </g>
  </g>
 </g>
</svg>
