<?xml version="1.0" encoding="UTF-8"?>
<!DOCTYPE svg PUBLIC "-//W3C//DTD SVG 1.0//EN" "http://www.w3.org/TR/2001/REC-SVG-20010904/DTD/svg10.dtd">
<!-- Creator: CorelDRAW 2020 (64-Bit) -->
<svg xmlns="http://www.w3.org/2000/svg" xml:space="preserve" width="268px" height="130px" version="1.0" shape-rendering="geometricPrecision" text-rendering="geometricPrecision" image-rendering="optimizeQuality" fill-rule="evenodd" clip-rule="evenodd"
viewBox="0 0 132.1 64.3"
 xmlns:xlink="http://www.w3.org/1999/xlink"
 xmlns:xodm="http://www.corel.com/coreldraw/odm/2003">
 <g id="Capa_x0020_1">
  <metadata id="CorelCorpID_0Corel-Layer"/>
  <g id="_2427743631184">
   <path fill="#7D69B2" fill-rule="nonzero" d="M108.5 13.6c2.7,1.8 5,4.3 6.5,7.2 1.5,2.8 2.3,5.9 2.3,9.3 0,3.3 -0.8,6.5 -2.3,9.3 -1.5,2.9 -3.8,5.3 -6.5,7.2l-4.1 -6.2c1.7,-1.1 3.1,-2.7 4.1,-4.5 0.9,-1.7 1.4,-3.7 1.4,-5.8 0,-2.1 -0.5,-4.1 -1.4,-5.8 -1,-1.8 -2.4,-3.4 -4.1,-4.5l4.1 -6.2z"/>
   <path fill="#7D69B2" fill-rule="nonzero" d="M116.4 0.6c4.8,3.3 8.8,7.7 11.6,12.8 2.6,5 4.1,10.7 4.1,16.7 0,6 -1.5,11.7 -4.1,16.7 -2.8,5.1 -6.8,9.5 -11.6,12.7l-4.1 -6.1c3.8,-2.6 7,-6.1 9.1,-10.1 2.1,-3.9 3.3,-8.4 3.3,-13.2 0,-4.8 -1.2,-9.3 -3.3,-13.2 -2.1,-4.1 -5.3,-7.5 -9.1,-10.1l4.1 -6.2z"/>
   <path fill="#7D69B2" d="M89.4 49.7l0 0zm-13.5 3.1l-8.8 -14.3 -29.3 0 0 -4.7 -7.4 0 0 12.1 32.6 0 8.7 14.3 10.3 0c4.9,0 9.4,-2 12.7,-5.3l0 0c3.2,-3.2 5.2,-7.7 5.2,-12.6l0 -24.4c0,-4.9 -2,-9.4 -5.2,-12.6l0 0c-3.3,-3.3 -7.8,-5.3 -12.7,-5.3l-10.3 0 -8.7 14.3 -32.6 0 0 12.1 7.4 0 0 -4.7 29.3 0 8.8 -14.3 2.4 0 0 6.9 7.4 0 0 -6.2c1.4,0.5 2.7,1.4 3.7,2.4 1.9,1.9 3.1,4.5 3.1,7.4l0 24.4c0,2.9 -1.2,5.5 -3.1,7.4 -1,1 -2.3,1.8 -3.7,2.4l0 -30.4 -7.4 0 0 31.1 -2.4 0z"/>
   <path fill="#7D69B2" d="M30.4 33.8l0 -7.4 -11.4 0c-5.3,0 -10,2.1 -13.4,5.5 -3.5,3.5 -5.6,8.2 -5.6,13.4 0,5.3 2.1,10 5.6,13.4 3.4,3.5 8.1,5.6 13.4,5.6l15.2 0 0 -7.4 -15.2 0c-3.2,0 -6.1,-1.3 -8.2,-3.4 -2.1,-2.1 -3.4,-5 -3.4,-8.2 0,-3.1 1.3,-6 3.4,-8.1 2.1,-2.1 5,-3.4 8.2,-3.4l11.4 0z"/>
  </g>
 </g>
</svg>
