<?xml version="1.0" encoding="UTF-8"?>
<!DOCTYPE svg PUBLIC "-//W3C//DTD SVG 1.0//EN" "http://www.w3.org/TR/2001/REC-SVG-20010904/DTD/svg10.dtd">
<!-- Creator: CorelDRAW 2020 (64-Bit) -->
<svg xmlns="http://www.w3.org/2000/svg" xml:space="preserve" width="143px" height="210px" version="1.0" shape-rendering="geometricPrecision" text-rendering="geometricPrecision" image-rendering="optimizeQuality" fill-rule="evenodd" clip-rule="evenodd"
viewBox="0 0 255.8 375.1"
 xmlns:xlink="http://www.w3.org/1999/xlink"
 xmlns:xodm="http://www.corel.com/coreldraw/odm/2003">
 <g id="Capa_x0020_1">
  <metadata id="CorelCorpID_0Corel-Layer"/>
  <g id="_2427150999152">
   <path fill="#FF99CC" fill-rule="nonzero" d="M113.1 59.6l0 259c0,15.5 -6.4,29.6 -16.6,39.9l-0.1 0c-10.2,10.3 -24.3,16.6 -39.8,16.6 -15.6,0 -29.8,-6.3 -40,-16.6 -10.2,-10.2 -16.6,-24.4 -16.6,-39.9l0 -259 29.8 0 0 259c0,7.3 3,14 7.9,18.8 4.8,4.9 11.5,7.9 18.9,7.9 7.3,0 14,-3 18.9,-7.8 4.8,-4.9 7.8,-11.6 7.8,-18.9l0 -259 29.8 0z"/>
   <rect fill="#FF99CC" x="29.8" y="29.8" width="53.5" height="29.8"/>
   <rect fill="#FF99CC" width="113.1" height="29.8"/>
   <path fill="#FF99CC" fill-rule="nonzero" d="M255.8 59.6l0 259c0,15.5 -6.4,29.6 -16.6,39.9l-0.1 0c-10.2,10.3 -24.4,16.6 -39.9,16.6 -15.5,0 -29.7,-6.3 -39.9,-16.6 -10.3,-10.2 -16.6,-24.4 -16.6,-39.9l0 -259 29.8 0 0 259c0,7.3 3,14 7.8,18.8 4.9,4.9 11.6,7.9 18.9,7.9 7.4,0 14.1,-3 18.9,-7.8 4.9,-4.9 7.9,-11.6 7.9,-18.9l0 -259 29.8 0z"/>
   <rect fill="#FF99CC" x="172.5" y="29.8" width="53.5" height="29.8"/>
   <rect fill="#FF99CC" x="142.7" width="113.1" height="29.8"/>
  </g>
 </g>
</svg>
