<?xml version="1.0" encoding="UTF-8"?>
<!DOCTYPE svg PUBLIC "-//W3C//DTD SVG 1.0//EN" "http://www.w3.org/TR/2001/REC-SVG-20010904/DTD/svg10.dtd">
<!-- Creator: CorelDRAW 2020 (64-Bit) -->
<svg xmlns="http://www.w3.org/2000/svg" xml:space="preserve" width="123px" height="123px" version="1.0" shape-rendering="geometricPrecision" text-rendering="geometricPrecision" image-rendering="optimizeQuality" fill-rule="evenodd" clip-rule="evenodd"
viewBox="0 0 121.7 121.7"
 xmlns:xlink="http://www.w3.org/1999/xlink"
 xmlns:xodm="http://www.corel.com/coreldraw/odm/2003">
 <g id="Capa_x0020_1">
  <metadata id="CorelCorpID_0Corel-Layer"/>
  <g id="_2427180224016">
   <path fill="white" d="M17.9 104c11.5,11.4 26.9,17.8 43,17.7 16.2,0 31.7,-6.4 43.1,-17.8 11.4,-11.5 17.8,-26.9 17.7,-43.1 0,-16.2 -6.4,-31.6 -17.8,-43 -11.5,-11.5 -26.9,-17.8 -43.1,-17.8 -16.2,0 -31.6,6.4 -43,17.9 -11.5,11.4 -17.8,26.9 -17.8,43 0,16.2 6.4,31.6 17.9,43.1zm-7.7 -43.1c0,-13.4 5.3,-26.3 14.8,-35.8 9.5,-9.5 22.3,-14.8 35.8,-14.9 13.5,0 26.3,5.3 35.8,14.8 9.6,9.5 14.9,22.3 14.9,35.8 0,13.5 -5.3,26.3 -14.8,35.8 -9.5,9.6 -22.3,14.9 -35.8,14.9 -13.4,0 -26.2,-5.3 -35.8,-14.8 -9.5,-9.5 -14.8,-22.3 -14.9,-35.8z"/>
   <path fill="white" d="M43.3 60.9l0 -12.8 9.3 -0.1c0.2,-1.3 0,-7.1 0.1,-9.3 0,-3 0.4,-5.3 1.3,-7.9 3.4,-9.1 16.3,-7.3 24.1,-7.3l0 12.9 -7.5 -0.1c-2.7,0.2 -3.9,2.2 -3.9,4.9l-0.1 6.8 11.8 0 -1.5 12.9 -10.2 0.1 0 37.3 -14 0.1 0 -37.4 -9.4 -0.1z"/>
  </g>
 </g>
</svg>
