<?xml version="1.0" encoding="UTF-8"?>
<!DOCTYPE svg PUBLIC "-//W3C//DTD SVG 1.0//EN" "http://www.w3.org/TR/2001/REC-SVG-20010904/DTD/svg10.dtd">
<!-- Creator: CorelDRAW 2020 (64-Bit) -->
<svg xmlns="http://www.w3.org/2000/svg" xml:space="preserve" width="506px" height="205px" version="1.0" shape-rendering="geometricPrecision" text-rendering="geometricPrecision" image-rendering="optimizeQuality" fill-rule="evenodd" clip-rule="evenodd"
viewBox="0 0 975.5 394.7"
 xmlns:xlink="http://www.w3.org/1999/xlink"
 xmlns:xodm="http://www.corel.com/coreldraw/odm/2003">
 <g id="Capa_x0020_1">
  <metadata id="CorelCorpID_0Corel-Layer"/>
  <g id="_2427157655840">
   <g>
    <path fill="white" d="M163.3 181.4l15.2 -15.2 -2.4 -2.4 -18.2 -18.2 -20.6 20.6 4 4 4.1 4.1 12.3 12.4 0.2 0.1 0.1 -0.1 5.3 -5.3z"/>
    <path fill="white" d="M202.4 123.6c0,10.2 8.3,18.4 18.5,18.4 10.2,0 18.4,-8.2 18.4,-18.4l-36.9 0z"/>
    <path fill="white" d="M285.2 243.6l0 0zm-193.9 47.6l0 18.1 42.6 0c2.8,0 5.5,0.6 7.9,1.6 2.5,1 4.8,2.6 6.7,4.5 1.9,1.9 3.5,4.2 4.5,6.7 1,2.4 1.6,5.1 1.6,7.9l0 3.3c0,8.2 1.6,16.1 4.7,23.4 3.1,7.4 7.6,14.2 13.3,19.9 0,0 0,0.1 0.1,0.1 5.7,5.6 12.4,10.2 19.9,13.3 7.2,3 15.1,4.7 23.4,4.7 4.4,0 8.9,-0.6 13.2,-1.5 4.4,-1 8.7,-2.5 12.7,-4.4 4.2,-1.9 8,-4.3 11.5,-6.9 3.5,-2.8 6.8,-5.9 9.6,-9.3 2.3,-2.6 4.3,-5.5 6.1,-8.7 1.8,-3.1 3.3,-6.4 4.5,-9.7 1.3,-3.4 2.2,-6.9 2.9,-10.4 0.6,-3.5 0.9,-7 0.9,-10.5l0 -38.1 0.1 -1.5 0.2 -0.7 0.5 -1.8 0.3 -0.7c0.8,-1.6 1.4,-2.5 2.5,-3.9l0.7 -0.7 1.5 -1.3 1.6 -1.1 1.7 -0.8c0.7,-0.3 1.1,-0.4 1.8,-0.6l0 0 1.8 -0.4c13.3,-0.5 18.6,0 32,0 9.3,0 17.6,-3.8 23.7,-9.8l0.1 -0.1c6,-6 9.8,-14.4 9.8,-23.7l0 -5 -18.1 0 0 -18 -45.6 0c-1.3,0 -2.7,0 -4.3,0.1 -1.7,0.1 -3.2,0.3 -4.7,0.5l0 0c-1.7,0.2 -3.2,0.5 -4.5,0.7l0 0c-1.4,0.3 -2.8,0.6 -4.4,1 -1.6,0.4 -3.1,0.9 -4.3,1.3 -1.4,0.4 -2.9,1 -4.3,1.5 0,0 0,0.1 -0.1,0.1 -1.2,0.5 -2.5,1.1 -4,1.8 -0.5,0.2 -1,0.4 -1.5,0.7 -0.9,0.5 -1.8,0.9 -2.5,1.3 -1.5,0.9 -3,1.8 -4.4,2.7 -1.3,0.8 -2.7,1.8 -4.1,2.9 -1.3,1 -2.6,2 -3.8,3.1 -0.9,0.8 -1.9,1.7 -2.9,2.7 -0.2,0.2 -0.5,0.4 -0.7,0.6 -0.1,0.2 -0.3,0.3 -0.4,0.5 -0.8,0.8 -1.7,1.8 -2.5,2.6 0,0.1 -2.4,2.8 -2.6,3.2l-2 2.6 -1.9 2.9c-0.5,0.7 -1,1.6 -1.8,2.8 -0.6,1.2 -1.2,2.2 -1.6,3 -0.6,1.3 -1.3,2.6 -1.9,4 -0.6,1.4 -1.2,2.8 -1.7,4.3 -0.5,1.3 -0.9,2.7 -1.4,4.2 -0.4,1.4 -0.8,2.8 -1.1,4.4 -0.4,1.5 -0.6,2.8 -0.8,4 -0.3,1.2 -0.4,2.5 -0.6,3.8 -0.1,1.3 -0.2,2.7 -0.3,4.1 -0.1,1.5 -0.2,2.8 -0.2,3.8l0 37c0,0.4 0,0.8 0,1l-0.2 0.6 -0.3 0.7c-0.1,0.2 -0.3,0.4 -0.5,0.7 -0.3,0.4 -0.6,0.7 -0.9,0.9 -0.2,0.2 -0.5,0.3 -0.8,0.5 -0.2,0.1 -0.4,0.1 -0.7,0.2l-0.1 0c-0.3,0.1 -0.7,0.1 -1.2,0.1 -1.4,0 -2.6,-0.5 -3.4,-1.3l0 -0.1c-0.4,-0.4 -0.8,-0.9 -1,-1.4 -0.2,-0.6 -0.4,-1.2 -0.4,-1.9l0 -0.9c0,-10.4 -2.1,-20.4 -5.8,-29.5 -4,-9.5 -9.7,-18 -16.8,-25.1 -7.2,-7.2 -15.7,-12.9 -25.2,-16.8 -9.1,-3.8 -19.1,-5.9 -29.5,-5.9l-42.6 0 0 18.1 0.1 0 42.5 0c8,0 15.7,1.6 22.6,4.4 7.3,3 13.8,7.5 19.3,12.9 5.5,5.5 9.9,12.1 12.9,19.3 2.9,6.9 4.5,14.6 4.5,22.6l0 0.9c0,3 0.6,6 1.7,8.7 1.1,2.8 2.8,5.3 4.9,7.4l0 0.1c4.1,4.1 9.8,6.6 16.2,6.6 1.6,0 3.3,-0.2 4.9,-0.5 1.7,-0.4 3.3,-0.9 4.7,-1.6 1.6,-0.7 3,-1.6 4.3,-2.6 1.4,-1.1 2.6,-2.2 3.6,-3.5 0.8,-0.9 1.6,-2 2.3,-3.2l0 0c0.6,-1.1 1.2,-2.3 1.7,-3.6 0.4,-1.2 0.8,-2.5 1,-3.9 0.2,-1.4 0.3,-2.7 0.3,-3.9l0 -37c0,-1.1 0,-2 0.1,-2.8 0,-0.9 0.1,-2 0.3,-3.1 0.1,-0.9 0.2,-1.8 0.4,-2.8 0.2,-1.2 0.4,-2.2 0.6,-3 0.2,-1.1 0.5,-2.2 0.8,-3.3l0 0c0.3,-1 0.6,-2.1 1,-3.2 0.4,-1.1 0.9,-2.1 1.3,-3.1 0.4,-1 0.9,-2 1.4,-3l1.3 -2.3 1.3 -2.1 1.4 -2.2c1.2,-1.6 2.1,-2.7 3.5,-4.2 1.3,-1.5 0.8,-1 1.1,-1.3l0.9 -1c0.8,-0.7 1.7,-1.6 2.8,-2.6l0 0c1,-0.8 1.9,-1.6 2.8,-2.3 0.9,-0.7 1.9,-1.4 3,-2.1 1.1,-0.7 2.2,-1.4 3.3,-2l0.1 0c1.2,-0.7 2.2,-1.2 3,-1.6 0.9,-0.4 1.9,-0.9 3,-1.3 1,-0.4 2,-0.8 3.1,-1.2 1.3,-0.4 2.4,-0.7 3.3,-0.9 0.9,-0.3 2,-0.5 3.3,-0.8 1.2,-0.2 2.3,-0.4 3.3,-0.5 1.5,-0.2 2.7,-0.3 3.7,-0.4 1,0 2,-0.1 3.1,-0.1l45.6 0 0 5c0,4.3 -1.7,8.2 -4.5,11 -2.8,2.8 -6.7,4.5 -11,4.5l-30.1 0 -2.2 0.1c-0.7,0 -1.4,0.1 -2,0.2l-2 0.2 -2 0.5 0 0c-0.5,0.1 -1.1,0.3 -2,0.6 -1.4,0.5 -2.5,1 -3.9,1.6l-1.8 0.9c-0.7,0.4 -1.4,0.8 -2,1.2l-1.8 1.4c-0.8,0.5 -1.3,1 -1.8,1.4 -0.6,0.5 -1.2,1 -1.7,1.5 -1.4,1.4 -2.3,2.6 -3.5,4.2l-0.8 1.3c-0.6,0.9 -1.1,1.7 -1.6,2.6 -0.6,1.3 -1.1,2.5 -1.6,3.8l-0.7 1.9c-0.3,1.4 -0.6,2.5 -0.8,3.8l-0.3 1.8 -0.1 1.8 -0.1 1.9 0 37c0,2.5 -0.2,5 -0.6,7.4 -0.5,2.6 -1.2,5 -2,7.3 -0.9,2.5 -2,4.8 -3.2,6.9 -1.2,2.1 -2.6,4.2 -4.3,6.1 -2,2.4 -4.3,4.6 -6.8,6.5 -2.5,2 -5.2,3.7 -8.1,5 -2.9,1.3 -5.9,2.4 -9,3.1 -3,0.6 -6.1,1 -9.3,1 -5.9,0 -11.4,-1.2 -16.5,-3.3 -5.3,-2.2 -10.1,-5.4 -14.1,-9.4l-0.1 -0.1c-3.9,-4 -7.2,-8.8 -9.4,-14.1 -2.1,-5 -3.2,-10.6 -3.2,-16.4l0 -3.3c0,-5.2 -1.1,-10.2 -3,-14.8 -2,-4.7 -4.9,-9 -8.4,-12.6 -3.6,-3.5 -7.8,-6.4 -12.6,-8.4 -4.6,-1.9 -9.6,-3 -14.8,-3l-42.6 0z"/>
    <path fill="white" d="M293 248.8c0,6.3 5.1,11.4 11.4,11.4 6.3,0 11.3,-5.1 11.3,-11.4l-22.7 0z"/>
    <path fill="white" d="M62.8 240.9c-6.7,0.1 -12.9,2.9 -17.3,7.4 -4.6,4.6 -7.4,10.9 -7.4,17.8 0,6.9 2.8,13.2 7.4,17.8l0 0c4.6,4.5 10.9,7.3 17.8,7.3l28 0 0 -18 0 0 -28 0c-2,0 -3.8,-0.8 -5,-2.1 -1.3,-1.3 -2.1,-3.1 -2.1,-5 0,-2 0.8,-3.8 2,-5l0.1 0c1.2,-1.2 2.7,-2 4.5,-2.1l0 -18.1z"/>
    <path fill="white" d="M157.9 197.3l-12.5 13.1c4,3.2 8.1,6.3 12.5,9 8.3,5.4 17.2,9.9 26.1,13.5 3.6,1.4 7.2,2.7 10.8,3.9 0.9,0.3 1.7,0.5 2.5,0.8 14.2,4.3 28,6.4 39.5,6.2l0 -7 0 -10.9c-10.9,0.2 -25,-2.2 -39.5,-7.3 -2.2,-0.8 -4.4,-1.6 -6.6,-2.5 -11.5,-4.6 -22.9,-10.9 -32.8,-18.8z"/>
    <path fill="white" d="M60.4 201.9c-16.3,0.6 -31.1,7.5 -42,18.4 -11.3,11.4 -18.4,27.1 -18.4,44.3 0,17.3 7.1,33 18.4,44.4 11.4,11.3 27.1,18.4 44.4,18.4l28.5 0 0 -18.1 -28.5 0c-12.3,0 -23.5,-5 -31.6,-13.1 -8.1,-8.1 -13.1,-19.3 -13.1,-31.6 0,-12.3 5,-23.4 13.1,-31.5 7.6,-7.6 17.9,-12.5 29.2,-13.1l0 -18.1z"/>
    <path fill="white" d="M157.9 118.4l0 17.7c14.6,-0.6 27.5,-7.4 36.4,-17.7 1,-1.3 2.1,-2.6 3,-4 5.8,-8.2 9.1,-18.2 9.1,-28.9 0,-2.2 0.2,-4.4 0.7,-6.6 2.6,-12.8 12.8,-23 26,-25.4 1.3,1.7 2.5,3.4 3.7,5.1 4.1,6.2 7.4,13.1 10.1,20.3 4.7,12.5 7.4,26 9,39.5 1.7,13.7 2.2,27.2 2.3,39.5l-21.4 0 0 39.4 0 28.6 16.8 0 0 -28.6 0 -20.9 22.7 -0.3 0 -0.9c0,-5.7 0,-11.5 -0.1,-17.3 -0.1,-13.1 -0.6,-26.3 -2.1,-39.5 -1.4,-13.3 -3.9,-26.5 -8.1,-39.5 -4.8,-15 -11.8,-28.3 -21.1,-39.4 -2.5,-3.1 -5.2,-6 -8.1,-8.8 -8.3,-7.9 -18,-14.5 -29.3,-19.7 -3.3,-1.5 -6.7,-2.9 -10.2,-4.2 -11.5,-4.1 -23.6,-6.4 -35.8,-6.8l-3.6 0 -4.2 0c-12,0.4 -24,2.7 -35.3,7.1 -13.6,5.3 -27.9,13.8 -39.5,24.8 -2.5,2.4 -4.9,4.9 -7.1,7.6 -6,7.1 -10.7,15 -13.6,23.5 -5,0.6 -9.6,1 -14.5,2.4 -1.4,0.4 -2.8,0.8 -4.2,1.4 -7.5,2.7 -14.2,6.9 -19.9,12.1 -0.7,0.6 -1.3,1.2 -1.9,1.8 -5.8,5.8 -10.4,12.8 -13.5,20.5 -2.1,5.4 -3.5,11.2 -4,17.2 -0.1,1.7 -0.2,3.3 -0.2,5 0,7.9 1.5,15.4 4.2,22.3 1.7,4.3 3.9,8.4 6.6,12.2 2,2.9 4.4,5.7 6.9,8.3 6.1,6.1 13.5,10.9 21.8,13.9 1.4,0.5 2.8,1 4.2,1.4 5.3,1.5 10.9,2.4 16.7,2.4l0 -18.1c-5.9,0 -11.6,-1.2 -16.7,-3.4 -1.5,-0.7 -2.9,-1.4 -4.2,-2.1 -1.3,-0.8 -2.6,-1.6 -3.8,-2.4 -1.9,-1.4 -3.6,-2.9 -5.2,-4.5l0 0c-1.9,-1.9 -3.6,-3.9 -5.1,-6.1l0.6 -2.3c1.2,-4.8 4,-9 7.8,-12 1.8,-1.4 3.7,-2.4 5.7,-3.1 1.3,-0.5 2.7,-0.9 4.2,-1.1 5.4,-1 11.2,-0.7 16.7,-0.8l0 18.1c6.5,0 11.7,0 18.5,-2.1 8.4,-2.6 15.8,-7.5 21.4,-14.1l10.9 14c0,0.5 0,0.9 0,1.4 0,4.4 -0.7,8.6 -2.1,12.6 -1.9,5.5 -5,10.5 -9.2,14.7l0 0c-5.5,5.6 -12.8,9.4 -21,10.8 -4,0.6 -12.4,0.5 -18.5,0.5l0 13.4 0 4.6 18.5 -0.3c5.7,-0.6 11.1,-2.1 16.2,-4.3 9.4,-4 17.4,-10.5 23.3,-18.6 4.5,-6.2 7.8,-13.2 9.5,-20.8 0.9,-4.1 1.4,-8.3 1.4,-12.6 0,-13.8 9.9,-24.8 22.8,-26.9 1.9,-0.3 3.9,-0.4 5.8,-0.4l0 0.4zm-2.1 -18.5c-14.5,0.3 -27.5,7.3 -35.7,18.5 -0.6,0.8 -1.2,1.6 -1.7,2.4 -0.3,0.6 -0.7,1.1 -1,1.7l-3.2 -4.1 -30.7 -39.5 -4.6 -5.8 -3.5 -4.6c0.9,-2.7 2.1,-5.4 3.5,-8 4.5,-7.9 11.2,-15 18.8,-21 6.5,-5.2 13.6,-9.5 20.4,-12.7 -1,4.8 -0.4,8.8 -1.6,12.7 -0.7,2 -1.8,3.9 -3.8,6 -2.9,2.9 -6.9,4.7 -11.3,4.7l0 18.1c6.2,0 12,-1.7 17,-4.6 8.7,-5.1 15,-13.9 16.6,-24.2 0.3,-1.7 0.4,-3.5 0.4,-5.3 0,-8.1 6.4,-15.1 13.9,-15.8l8.6 0.1 12 0.3c-5.8,5.8 -9.8,12.9 -11.5,20.7 -0.2,0.8 -0.4,1.7 -0.5,2.6 -0.4,2.2 -0.6,4.5 -0.6,6.8 0,13.6 -10.9,24.4 -24.4,24.4l0 5.6 0 12.5c9.3,0 17.9,-3 25,-8.1 1.8,-1.3 3.5,-2.8 5.1,-4.4 7.6,-7.6 12.4,-18.3 12.4,-30 0,-3.3 0.7,-6.5 1.9,-9.4 1.2,-2.9 3,-5.6 5.2,-7.8 3.3,-3.3 7.4,-5.6 12.1,-6.6l2.7 1.2 2.6 1.1c6.8,3.1 13.2,7 19,11.7 -0.4,0.1 -0.7,0.2 -1,0.4 -8.4,3.8 -15.5,9.8 -20.6,17.2 -4.5,6.5 -7.5,14.1 -8.6,22.2 -0.2,2.2 -0.4,4.4 -0.4,6.6 0,17.3 -13.5,31.4 -30.4,32.5l0 -18.1 -2.1 0zm-76.9 2.5l9.9 12.7c-0.7,1.2 -1.5,2.3 -2.4,3.3 -2.1,2.4 -4.7,4.5 -7.5,6.1 -4.1,2.2 -8.7,3.5 -13.6,3.5l-4.9 0 0 -9.6 0 -8.5c-6,0.1 -11.5,0 -16.7,0.6 -1.4,0.2 -2.8,0.4 -4.2,0.6 -5.5,1.1 -10.8,3.1 -16.3,7.3 -0.2,0.1 -0.3,0.2 -0.5,0.4 -1.6,1.3 -3.2,2.7 -4.6,4.2 0,-1.5 0.1,-3.1 0.3,-4.6 1.1,-9.7 5.5,-18.4 12.1,-24.9 2.6,-2.7 5.7,-5 9,-6.9 1.3,-0.7 2.7,-1.4 4.2,-2.1 5.1,-2.2 10.8,-3.4 16.7,-3.4l1.9 0 16.6 21.3z"/>
   </g>
   <path fill="white" fill-rule="nonzero" d="M539.1 280.9l-26.2 0 0 -68.4 -86.5 0 0 68.4 -26.2 0 0 -170 26.2 0 0 72.9 86.5 0 0 -72.9 26.2 0 0 170zm50.4 -105.2l0 105.2 -24.3 0 0 -105.2 24.3 0zm0 -46.6l0 26.4 -24.3 0 0 -26.4 24.3 0zm76.4 134.9c9.9,0 17.3,-2.7 22.3,-8.2 5,-5.5 8.5,-11.7 10.4,-18.7l24.5 3.6c-3,11.3 -9.2,21.3 -18.5,30 -9.2,8.7 -22.1,13.1 -38.7,13.1 -11.9,0 -22.3,-2.8 -31.2,-8.2 -8.8,-5.5 -15.8,-13.2 -20.7,-23.1 -4.9,-9.9 -7.4,-21.4 -7.4,-34.4 0,-13.1 2.5,-24.5 7.4,-34.5 4.9,-9.9 11.9,-17.6 20.9,-23.1 8.9,-5.4 19.3,-8.2 31,-8.2 15.9,0 28.2,3.9 36.8,11.6 8.7,7.7 14.6,15.8 17.8,24.4l-22.6 7.4c-2.1,-6.1 -5.6,-11.5 -10.4,-16.3 -4.8,-4.9 -12,-7.3 -21.6,-7.3 -10.6,0 -19,4.1 -25.2,12.3 -6.2,8.1 -9.3,19.4 -9.3,33.7 0,14.2 3.1,25.5 9.3,33.7 6.2,8.1 14.6,12.2 25.2,12.2zm182.9 -19.7c-3.5,10.9 -9.8,20.2 -19,27.9 -9.2,7.7 -22.2,11.6 -38.9,11.6 -11.7,0 -22,-2.8 -30.9,-8.2 -8.9,-5.5 -15.8,-13.2 -20.8,-23.1 -4.9,-9.9 -7.3,-21.3 -7.3,-34.2 0,-13 2.4,-24.5 7.2,-34.5 4.9,-10 11.7,-17.8 20.5,-23.3 8.8,-5.4 19.2,-8.2 31.1,-8.2 11.4,0 21.6,2.6 30.6,7.8 9,5.1 16,12.5 21,22.1 5,9.6 7.5,21 7.5,34.2 0,3.3 -0.1,5.9 -0.3,7.6l-93.1 0c0.3,11.8 3.6,21.4 9.8,28.8 6.1,7.5 14.4,11.2 24.7,11.2 9.7,0 17.2,-2.3 22.4,-6.9 5.3,-4.6 8.9,-9.8 11,-15.7l24.5 2.9zm-58.1 -72.2c-10,0 -17.9,3.2 -23.6,9.5 -5.7,6.4 -9.1,14.3 -10.2,23.8l68.1 0c-1.1,-9.5 -4.6,-17.4 -10.4,-23.8 -5.8,-6.3 -13.7,-9.5 -23.9,-9.5zm179 89.8c2.1,0 4,-0.3 5.8,-1l0 20c-2.4,0.8 -6.6,1.2 -12.7,1.2 -12.5,0 -19.9,-5.1 -22.1,-15.2l-1 0c-4.1,5.7 -9.8,9.9 -17.2,12.7 -7.4,2.8 -15.1,4.2 -23,4.2 -7.3,0 -14.1,-1.6 -20.3,-4.7 -6.1,-3 -11.1,-7.4 -14.7,-13.1 -3.7,-5.6 -5.5,-12.2 -5.5,-19.8 0,-13.1 4.3,-22.6 12.7,-28.6 8.5,-6 21.5,-10.1 39,-11.9 11.1,-1.2 18.7,-2.8 22.7,-5 4.1,-2.3 6.1,-5.4 6.1,-9.6 0,-12.5 -8.3,-18.8 -24.8,-18.8 -6.6,0 -12.6,1.8 -17.8,5.4 -5.3,3.5 -8.9,8.8 -11,15.8l-22.4 -5.2c2.7,-11.1 8.8,-19.9 18.1,-26.3 9.4,-6.5 20.7,-9.7 33.8,-9.7 16.9,0 29.2,3.6 36.8,10.6 7.7,7.1 11.6,16.4 11.6,27.8l0 63.8c0,4.9 2,7.4 5.9,7.4zm-30.2 -45.5c-1.7,1.9 -5.3,3.4 -10.7,4.6 -5.4,1.2 -12.3,2.4 -20.7,3.5 -7,0.9 -12.8,3.2 -17.3,6.7 -4.5,3.4 -6.8,8.5 -6.8,15 0,5.8 1.8,10.4 5.4,13.5 3.5,3.2 8.4,4.8 14.6,4.8 5.7,0 11.3,-1.2 16.7,-3.6 5.4,-2.4 9.9,-6 13.4,-10.9 3.6,-4.9 5.4,-11.1 5.4,-18.6l0 -15z"/>
  </g>
 </g>
</svg>
