<?xml version="1.0" encoding="UTF-8"?>
<!DOCTYPE svg PUBLIC "-//W3C//DTD SVG 1.0//EN" "http://www.w3.org/TR/2001/REC-SVG-20010904/DTD/svg10.dtd">
<!-- Creator: CorelDRAW 2020 (64-Bit) -->
<svg xmlns="http://www.w3.org/2000/svg" xml:space="preserve" width="299px" height="90px" version="1.0" shape-rendering="geometricPrecision" text-rendering="geometricPrecision" image-rendering="optimizeQuality" fill-rule="evenodd" clip-rule="evenodd"
viewBox="0 0 403.8 121.4"
 xmlns:xlink="http://www.w3.org/1999/xlink"
 xmlns:xodm="http://www.corel.com/coreldraw/odm/2003">
 <g id="Capa_x0020_1">
  <metadata id="CorelCorpID_0Corel-Layer"/>
  <path fill="white" fill-rule="nonzero" d="M97.5 119.4l-18.4 0 0 -48 -60.7 0 0 48 -18.4 0 0 -119.4 18.4 0 0 51.2 60.7 0 0 -51.2 18.4 0 0 119.4zm35.4 -73.9l0 73.9 -17.1 0 0 -73.9 17.1 0zm0 -32.7l0 18.5 -17.1 0 0 -18.5 17.1 0zm53.6 94.7c6.9,0 12.1,-1.9 15.6,-5.8 3.5,-3.8 6,-8.2 7.3,-13.1l17.2 2.5c-2.1,7.9 -6.4,15 -12.9,21.1 -6.5,6.1 -15.6,9.2 -27.2,9.2 -8.4,0 -15.7,-1.9 -21.9,-5.8 -6.2,-3.8 -11.1,-9.2 -14.5,-16.2 -3.5,-7 -5.2,-15 -5.2,-24.2 0,-9.1 1.7,-17.2 5.2,-24.1 3.4,-7 8.3,-12.4 14.6,-16.2 6.3,-3.9 13.6,-5.8 21.8,-5.8 11.2,0 19.8,2.7 25.8,8.1 6.1,5.4 10.3,11.1 12.5,17.1l-15.9 5.2c-1.4,-4.2 -3.9,-8 -7.3,-11.4 -3.4,-3.4 -8.4,-5.1 -15.1,-5.1 -7.5,0 -13.4,2.8 -17.7,8.6 -4.4,5.7 -6.5,13.6 -6.5,23.6 0,10.1 2.1,18 6.5,23.7 4.3,5.7 10.2,8.6 17.7,8.6zm128.4 -13.9c-2.5,7.7 -6.9,14.3 -13.4,19.7 -6.5,5.4 -15.5,8.1 -27.3,8.1 -8.2,0 -15.4,-1.9 -21.7,-5.8 -6.2,-3.8 -11.1,-9.2 -14.5,-16.2 -3.5,-7 -5.2,-15 -5.2,-24 0,-9.1 1.7,-17.2 5.1,-24.2 3.4,-7.1 8.2,-12.5 14.4,-16.3 6.1,-3.9 13.4,-5.8 21.8,-5.8 8,0 15.2,1.8 21.5,5.4 6.3,3.6 11.2,8.8 14.7,15.6 3.5,6.7 5.2,14.7 5.2,24 0,2.3 0,4.1 -0.1,5.3l-65.4 0c0.2,8.3 2.5,15 6.9,20.2 4.3,5.3 10.1,7.9 17.3,7.9 6.8,0 12.1,-1.6 15.8,-4.8 3.6,-3.3 6.2,-7 7.7,-11.1l17.2 2zm-40.8 -50.6c-7,0 -12.6,2.2 -16.6,6.7 -4,4.4 -6.4,10 -7.2,16.7l47.9 0c-0.8,-6.7 -3.3,-12.3 -7.3,-16.7 -4.1,-4.5 -9.7,-6.7 -16.8,-6.7zm125.7 63c1.4,0 2.8,-0.2 4,-0.7l0 14.1c-1.7,0.5 -4.6,0.8 -8.9,0.8 -8.8,0 -14,-3.6 -15.5,-10.7l-0.7 0c-2.9,4 -6.9,7 -12.1,9 -5.2,1.9 -10.6,2.9 -16.2,2.9 -5.1,0 -9.8,-1.1 -14.2,-3.3 -4.3,-2.1 -7.8,-5.2 -10.3,-9.2 -2.6,-3.9 -3.9,-8.6 -3.9,-13.9 0,-9.2 3,-15.9 9,-20.1 5.9,-4.2 15,-7.1 27.3,-8.4 7.8,-0.8 13.1,-1.9 16,-3.5 2.8,-1.5 4.2,-3.8 4.2,-6.7 0,-8.8 -5.8,-13.2 -17.4,-13.2 -4.6,0 -8.8,1.3 -12.5,3.8 -3.7,2.5 -6.2,6.2 -7.7,11.1l-15.7 -3.7c1.9,-7.8 6.1,-13.9 12.7,-18.4 6.6,-4.5 14.5,-6.8 23.8,-6.8 11.8,0 20.4,2.5 25.8,7.4 5.4,5 8.1,11.5 8.1,19.5l0 44.8c0,3.5 1.4,5.2 4.2,5.2zm-21.3 -31.9c-1.2,1.3 -3.7,2.4 -7.5,3.2 -3.8,0.9 -8.6,1.7 -14.5,2.5 -4.9,0.6 -9,2.2 -12.2,4.6 -3.1,2.5 -4.7,6 -4.7,10.6 0,4.1 1.2,7.3 3.7,9.5 2.6,2.2 6,3.3 10.3,3.3 4,0 7.9,-0.8 11.7,-2.5 3.8,-1.6 7,-4.2 9.5,-7.7 2.5,-3.4 3.7,-7.8 3.7,-13l0 -10.5z"/>
 </g>
</svg>
