<?xml version="1.0" encoding="UTF-8"?>
<!DOCTYPE svg PUBLIC "-//W3C//DTD SVG 1.0//EN" "http://www.w3.org/TR/2001/REC-SVG-20010904/DTD/svg10.dtd">
<!-- Creator: CorelDRAW 2020 (64-Bit) -->
<svg xmlns="http://www.w3.org/2000/svg" xml:space="preserve" width="115px" height="115px" version="1.0" shape-rendering="geometricPrecision" text-rendering="geometricPrecision" image-rendering="optimizeQuality" fill-rule="evenodd" clip-rule="evenodd"
viewBox="0 0 150.2 150.2"
 xmlns:xlink="http://www.w3.org/1999/xlink"
 xmlns:xodm="http://www.corel.com/coreldraw/odm/2003">
 <g id="Capa_x0020_1">
  <metadata id="CorelCorpID_0Corel-Layer"/>
  <g id="_2425296867936">
   <path fill="white" fill-rule="nonzero" d="M75.1 0c-20.4,0 -23,0.1 -31,0.5 -8,0.3 -13.4,1.6 -18.2,3.4 -4.9,2 -9.1,4.5 -13.3,8.7 -4.2,4.2 -6.7,8.4 -8.7,13.3 -1.8,4.8 -3.1,10.2 -3.4,18.2 -0.4,8 -0.5,10.6 -0.5,31 0,20.4 0.1,22.9 0.5,30.9 0.3,8 1.6,13.5 3.4,18.3 2,4.9 4.5,9.1 8.7,13.3 4.2,4.1 8.4,6.7 13.3,8.6 4.8,1.9 10.2,3.2 18.2,3.5 8,0.4 10.6,0.5 31,0.5 20.4,0 22.9,-0.1 30.9,-0.5 8,-0.3 13.5,-1.6 18.3,-3.5 4.9,-1.9 9.1,-4.5 13.3,-8.6 4.1,-4.2 6.7,-8.4 8.6,-13.3 1.9,-4.8 3.2,-10.3 3.5,-18.3 0.4,-8 0.5,-10.5 0.5,-30.9 0,-20.4 -0.1,-23 -0.5,-31 -0.3,-8 -1.6,-13.4 -3.5,-18.2 -1.9,-4.9 -4.5,-9.1 -8.6,-13.3 -4.2,-4.2 -8.4,-6.7 -13.3,-8.7 -4.8,-1.8 -10.3,-3.1 -18.3,-3.4 -8,-0.4 -10.5,-0.5 -30.9,-0.5l0 0zm0 13.5c20,0 22.4,0.1 30.3,0.5 7.4,0.3 11.3,1.5 14,2.6 3.5,1.3 6,2.9 8.6,5.6 2.6,2.6 4.3,5.1 5.6,8.6 1.1,2.6 2.3,6.6 2.6,13.9 0.4,8 0.4,10.3 0.4,30.4 0,20 0,22.4 -0.4,30.3 -0.3,7.4 -1.5,11.3 -2.6,14 -1.3,3.5 -3,6 -5.6,8.6 -2.6,2.6 -5.1,4.3 -8.6,5.6 -2.7,1.1 -6.6,2.3 -14,2.6 -7.9,0.4 -10.3,0.4 -30.3,0.4 -20.1,0 -22.4,0 -30.4,-0.4 -7.3,-0.3 -11.3,-1.5 -13.9,-2.6 -3.5,-1.3 -6,-3 -8.6,-5.6 -2.7,-2.6 -4.3,-5.1 -5.6,-8.6 -1.1,-2.7 -2.3,-6.6 -2.6,-14 -0.4,-7.9 -0.5,-10.3 -0.5,-30.3 0,-20.1 0.1,-22.4 0.5,-30.4 0.3,-7.3 1.5,-11.3 2.6,-13.9 1.3,-3.5 2.9,-6 5.6,-8.6 2.6,-2.7 5.1,-4.3 8.6,-5.6 2.6,-1.1 6.6,-2.3 13.9,-2.6 8,-0.4 10.3,-0.5 30.4,-0.5z"/>
   <path fill="white" fill-rule="nonzero" d="M75.1 100.1c-13.8,0 -25,-11.2 -25,-25 0,-13.8 11.2,-25 25,-25 13.8,0 25,11.2 25,25 0,13.8 -11.2,25 -25,25zm0 -63.6c-21.3,0 -38.6,17.3 -38.6,38.6 0,21.3 17.3,38.5 38.6,38.5 21.3,0 38.5,-17.2 38.5,-38.5 0,-21.3 -17.2,-38.6 -38.5,-38.6z"/>
   <path fill="white" fill-rule="nonzero" d="M124.2 35c0,5 -4.1,9 -9,9 -5,0 -9,-4 -9,-9 0,-5 4,-9 9,-9 4.9,0 9,4 9,9z"/>
  </g>
 </g>
</svg>
