<?xml version="1.0" encoding="UTF-8"?>
<!DOCTYPE svg PUBLIC "-//W3C//DTD SVG 1.0//EN" "http://www.w3.org/TR/2001/REC-SVG-20010904/DTD/svg10.dtd">
<!-- Creator: CorelDRAW 2020 (64-Bit) -->
<svg xmlns="http://www.w3.org/2000/svg" xml:space="preserve" width="268px" height="268px" version="1.0" shape-rendering="geometricPrecision" text-rendering="geometricPrecision" image-rendering="optimizeQuality" fill-rule="evenodd" clip-rule="evenodd"
viewBox="0 0 257.8 257.8"
 xmlns:xlink="http://www.w3.org/1999/xlink"
 xmlns:xodm="http://www.corel.com/coreldraw/odm/2003">
 <g id="Capa_x0020_1">
  <metadata id="CorelCorpID_0Corel-Layer"/>
  <g id="_1373136034528">
   <g>
    <path fill="#FF99CC" fill-rule="nonzero" d="M121 60.2l0 139c0,8.4 -3.4,15.9 -8.9,21.4l-0.1 0.1c-5.5,5.5 -13,8.9 -21.4,8.9 -8.3,0 -15.9,-3.4 -21.4,-8.9 -5.5,-5.5 -8.9,-13.1 -8.9,-21.5l0 -139 16 0 0 139c0,4 1.6,7.6 4.2,10.2 2.6,2.6 6.2,4.2 10.1,4.2 4,0 7.6,-1.6 10.2,-4.2 2.6,-2.6 4.2,-6.2 4.2,-10.2l0 -139 16 0z"/>
    <rect fill="#FF99CC" x="76.3" y="44.2" width="28.7" height="16"/>
    <rect fill="#FF99CC" x="60.3" y="28.2" width="60.7" height="16"/>
    <path fill="#FF99CC" fill-rule="nonzero" d="M197.6 60.2l0 139c0,8.4 -3.5,15.9 -9,21.4l0 0.1c-5.5,5.5 -13.1,8.9 -21.4,8.9 -8.4,0 -16,-3.4 -21.4,-8.9 -5.5,-5.5 -9,-13.1 -9,-21.5l0 -139 16 0 0 139c0,4 1.7,7.6 4.3,10.2 2.6,2.6 6.2,4.2 10.1,4.2 3.9,0 7.5,-1.6 10.1,-4.2 2.6,-2.6 4.3,-6.2 4.3,-10.2l0 -139 16 0z"/>
    <rect fill="#FF99CC" x="152.8" y="44.2" width="28.7" height="16"/>
    <rect fill="#FF99CC" x="136.8" y="28.2" width="60.7" height="16"/>
   </g>
   <rect fill="none" width="257.8" height="257.8"/>
  </g>
 </g>
</svg>
