<?xml version="1.0" encoding="UTF-8"?>
<!DOCTYPE svg PUBLIC "-//W3C//DTD SVG 1.0//EN" "http://www.w3.org/TR/2001/REC-SVG-20010904/DTD/svg10.dtd">
<!-- Creator: CorelDRAW 2020 (64-Bit) -->
<svg xmlns="http://www.w3.org/2000/svg" xml:space="preserve" width="184px" height="210px" version="1.0" shape-rendering="geometricPrecision" text-rendering="geometricPrecision" image-rendering="optimizeQuality" fill-rule="evenodd" clip-rule="evenodd"
viewBox="0 0 147.4 168"
 xmlns:xlink="http://www.w3.org/1999/xlink"
 xmlns:xodm="http://www.corel.com/coreldraw/odm/2003">
 <g id="Capa_x0020_1">
  <metadata id="CorelCorpID_0Corel-Layer"/>
  <g id="_2425451806400">
   <path fill="#FF99CC" d="M73.7 158.1l-42.2 -42.2c-11.6,-11.6 -17.4,-26.9 -17.4,-42.2 0,-15.3 5.8,-30.6 17.4,-42.2 11.6,-11.6 26.9,-17.4 42.2,-17.4 15.3,0 30.6,5.8 42.2,17.4 11.6,11.6 17.4,26.9 17.4,42.2 0,15.3 -5.8,30.6 -17.4,42.2l-42.2 42.2zm-52.2 -32.3l42.2 42.2 10 -9.9 10 9.9 42.1 -42.2c14.4,-14.3 21.6,-33.2 21.6,-52.1 0,-18.9 -7.2,-37.8 -21.6,-52.2 -14.3,-14.3 -33.2,-21.5 -52.1,-21.5 -18.9,0 -37.8,7.2 -52.2,21.5 -14.3,14.4 -21.5,33.3 -21.5,52.2 0,18.9 7.2,37.8 21.5,52.1z"/>
   <path fill="#FF99CC" d="M73.7 101.9c7.2,0 14.4,-2.8 19.9,-8.3 5.5,-5.5 8.3,-12.7 8.3,-19.9 0,-7.2 -2.8,-14.5 -8.3,-20 -5.5,-5.5 -12.7,-8.2 -19.9,-8.2 -7.2,0 -14.5,2.7 -20,8.3 -5.5,5.5 -8.2,12.7 -8.2,19.9 0,7.2 2.7,14.4 8.3,19.9 5.5,5.5 12.7,8.3 19.9,8.3zm10 -38.2c2.7,2.7 4.1,6.4 4.1,10 0,3.6 -1.4,7.2 -4.1,10 -2.8,2.7 -6.4,4.1 -10,4.1 -3.7,0 -7.3,-1.4 -10,-4.1 -2.7,-2.8 -4.1,-6.4 -4.1,-10 0,-3.7 1.4,-7.3 4.1,-10 2.7,-2.7 6.4,-4.1 10,-4.1 3.6,0 7.2,1.4 10,4.1z"/>
  </g>
 </g>
</svg>
