<?xml version="1.0" encoding="UTF-8"?>
<!DOCTYPE svg PUBLIC "-//W3C//DTD SVG 1.0//EN" "http://www.w3.org/TR/2001/REC-SVG-20010904/DTD/svg10.dtd">
<!-- Creator: CorelDRAW 2020 (64-Bit) -->
<svg xmlns="http://www.w3.org/2000/svg" xml:space="preserve" width="316px" height="316px" version="1.0" shape-rendering="geometricPrecision" text-rendering="geometricPrecision" image-rendering="optimizeQuality" fill-rule="evenodd" clip-rule="evenodd"
viewBox="0 0 186.6 186.6"
 xmlns:xlink="http://www.w3.org/1999/xlink"
 xmlns:xodm="http://www.corel.com/coreldraw/odm/2003">
 <g id="Capa_x0020_1">
  <metadata id="CorelCorpID_0Corel-Layer"/>
  <g id="_1373136675808">
   <rect fill="none" width="186.6" height="186.6"/>
   <g>
    <path fill="#7D69B2" d="M102.8 161.9l0 0zm-5 -30.1l0 11.6 0 9c0,1.2 -0.5,2.3 -1.3,3.1l0 0.1c-0.8,0.8 -1.9,1.3 -3.2,1.3 -1.2,0 -2.3,-0.5 -3.2,-1.3l0 -0.1c-0.8,-0.8 -1.3,-1.9 -1.3,-3.1l0 -9 0 -11.6 -9 0 0 11.6 0 9c0,3.7 1.5,7 4,9.5l0 0c2.5,2.4 5.8,4 9.5,4 3.7,0 7.1,-1.6 9.5,-4 2.5,-2.4 4,-5.8 4,-9.5l0 -9 0 -11.6 -9 0z"/>
    <path fill="#7D69B2" d="M88.8 131.8l9 0 0 -6.9 0 -52.8 2.1 -2.1c3.7,-3.7 3.7,-9.6 0,-13.3 -3.6,-3.6 -9.6,-3.6 -13.2,0 -3.6,3.7 -3.6,9.6 0,13.3l2.1 2.1 0 52.8 0 6.9z"/>
    <path fill="#7D69B2" d="M111.2 92.3l-7.4 28.3 9.2 0 7.7 -29.5 -7 -12.9c3.8,-6.2 6.7,-13 8.8,-20.2 2.1,-7.2 3.4,-14.8 3.9,-22.8l17.9 -4.8c3.4,-0.9 6.9,-0.4 9.7,1.3l0 0c2.8,1.6 5,4.3 5.9,7.7l0 0c0.8,2.9 0.5,5.8 -0.5,8.3 -0.7,1.6 -1.8,3.1 -3.1,4.4 -3.1,-1.5 -6.7,-1.7 -10.3,-0.8 -3.8,1 -7.6,3.2 -10.6,6.5 -0.7,0.8 -1.4,1.7 -2,2.6l0 0c-1.9,2.9 -2.8,6.1 -2.8,9.1 0.1,3.3 1.4,6.3 3.8,8.5l0 0c0.5,0.4 1,0.8 1.5,1.2 3.3,2.1 7.6,2.5 11.7,1.5 3.8,-1 7.7,-3.2 10.6,-6.5 0.8,-0.8 1.5,-1.7 2.1,-2.6 1.8,-2.9 2.8,-6.1 2.7,-9.1 0,-1.3 -0.3,-2.6 -0.7,-3.8 2.3,-2.1 4.1,-4.7 5.3,-7.5 1.8,-4.2 2.3,-8.8 1.2,-13.5l0 0 -0.2 -0.6c-1.5,-5.8 -5.3,-10.4 -10.1,-13.2 -4.9,-2.8 -10.7,-3.7 -16.5,-2.2l-19.6 5.3c-9.7,-4.2 -19.4,-6.3 -29.1,-6.2 -9.7,0 -19.4,2.1 -29,6.2l-19.7 -5.3c-5.7,-1.5 -11.6,-0.6 -16.4,2.2 -4.9,2.8 -8.6,7.4 -10.2,13.2l-0.1 0.6 0 0c-1.1,4.7 -0.6,9.3 1.1,13.5 1.2,2.8 3,5.4 5.3,7.5 -0.4,1.2 -0.6,2.5 -0.7,3.8 0,3 0.9,6.2 2.8,9.1 0.6,0.9 1.2,1.8 2,2.6 2.9,3.3 6.8,5.5 10.6,6.5 4.2,1 8.4,0.6 11.7,-1.5 0.5,-0.4 1,-0.8 1.5,-1.2l0 0c2.5,-2.2 3.7,-5.2 3.8,-8.5 0,-3 -0.9,-6.2 -2.8,-9.1l0 0c-0.6,-0.9 -1.3,-1.8 -2,-2.6 -2.9,-3.3 -6.8,-5.5 -10.6,-6.5 -3.6,-0.9 -7.2,-0.7 -10.3,0.8 -1.3,-1.3 -2.3,-2.8 -3,-4.4 -1.1,-2.5 -1.4,-5.4 -0.6,-8.3l0 0c0.9,-3.4 3.1,-6.1 5.9,-7.7l0.1 0c2.8,-1.7 6.2,-2.2 9.6,-1.3l17.9 4.8c0.5,8 1.8,15.6 3.9,22.8 2.1,7.2 5.1,14 8.9,20.2l-7.1 12.9 7.7 29.5 9.3 0 -7.4 -28.3 7.9 -14.5 -1.5 -2.2c-4,-6.1 -7.1,-12.8 -9.2,-20.1 -1.9,-6.5 -3.1,-13.5 -3.5,-20.8 8,-3.3 16.1,-4.9 24.1,-5 8.1,0 16.1,1.6 24.2,4.9 -0.5,7.4 -1.7,14.4 -3.6,20.9 -2.1,7.3 -5.1,14 -9.2,20.1l-1.5 2.2 8 14.5zm28.4 -23c0,-1.2 0.4,-2.6 1.3,-4l0 0c0.3,-0.5 0.7,-1 1.2,-1.5 1.7,-1.9 3.9,-3.2 6.1,-3.8 1.8,-0.4 3.5,-0.3 4.7,0.4 0.1,0.1 0.2,0.2 0.3,0.3 0.5,0.4 0.8,1.2 0.8,2 0.1,1.2 -0.4,2.6 -1.3,4 -0.3,0.5 -0.7,1 -1.1,1.5 -1.8,1.9 -4,3.2 -6.1,3.8 -1.9,0.4 -3.6,0.3 -4.7,-0.4 -0.2,-0.1 -0.3,-0.2 -0.4,-0.2l0 -0.1c-0.5,-0.4 -0.8,-1.2 -0.8,-2zm-95 -5.5c0.4,0.5 0.8,1 1.1,1.5l0 0c0.9,1.4 1.4,2.8 1.3,4 0,0.8 -0.3,1.6 -0.8,2l0 0.1c-0.1,0 -0.2,0.1 -0.3,0.2 -1.2,0.7 -2.9,0.8 -4.7,0.4 -2.2,-0.6 -4.4,-1.9 -6.1,-3.8 -0.5,-0.5 -0.9,-1 -1.2,-1.5 -0.9,-1.4 -1.3,-2.8 -1.3,-4 0,-0.8 0.3,-1.6 0.8,-2 0.1,-0.1 0.3,-0.2 0.4,-0.3 1.1,-0.7 2.8,-0.8 4.6,-0.4 2.2,0.6 4.4,1.9 6.2,3.8z"/>
   </g>
  </g>
 </g>
</svg>
