<?xml version="1.0" encoding="UTF-8"?>
<!DOCTYPE svg PUBLIC "-//W3C//DTD SVG 1.0//EN" "http://www.w3.org/TR/2001/REC-SVG-20010904/DTD/svg10.dtd">
<!-- Creator: CorelDRAW 2020 (64-Bit) -->
<svg xmlns="http://www.w3.org/2000/svg" xml:space="preserve" width="257px" height="246px" version="1.0" shape-rendering="geometricPrecision" text-rendering="geometricPrecision" image-rendering="optimizeQuality" fill-rule="evenodd" clip-rule="evenodd"
viewBox="0 0 122.1 116.5"
 xmlns:xlink="http://www.w3.org/1999/xlink"
 xmlns:xodm="http://www.corel.com/coreldraw/odm/2003">
 <g id="Capa_x0020_1">
  <metadata id="CorelCorpID_0Corel-Layer"/>
  <g id="_2427743628448">
   <path fill="#7D69B2" d="M68.7 113.3l0 0zm-4.1 -24.2l0 9.3 0 7.3c0,0.9 -0.4,1.9 -1,2.5l0 0c-0.7,0.7 -1.6,1.1 -2.6,1.1 -1,0 -1.9,-0.4 -2.5,-1.1l0 0c-0.7,-0.6 -1.1,-1.5 -1.1,-2.5l0 -7.3 0 -9.3 -7.2 0 0 9.3 0 7.3c0,2.9 1.2,5.6 3.2,7.6l0 0c2,2 4.7,3.2 7.6,3.2 3,0 5.7,-1.2 7.7,-3.2 1.9,-1.9 3.2,-4.7 3.2,-7.6l0 -7.3 0 -9.3 -7.3 0z"/>
   <path fill="#7D69B2" d="M57.4 89.1l7.2 0 0 -5.5 0 -42.4 1.7 -1.7c3,-2.9 3,-7.7 0,-10.6 -2.9,-2.9 -7.6,-2.9 -10.6,0 -2.9,2.9 -2.9,7.7 0,10.6l1.7 1.7 0 42.4 0 5.5z"/>
   <path fill="#7D69B2" d="M75.4 57.4l-6 22.7 7.5 0 6.2 -23.6 -5.7 -10.4c3,-5 5.4,-10.4 7.1,-16.2 1.7,-5.8 2.7,-11.9 3.1,-18.3l14.4 -3.9c2.7,-0.7 5.5,-0.3 7.7,1.1l0.1 0c2.2,1.3 4,3.4 4.7,6.1l0 0.1c0.6,2.3 0.4,4.6 -0.4,6.6 -0.6,1.3 -1.4,2.5 -2.5,3.5 -2.5,-1.1 -5.4,-1.3 -8.3,-0.6 -3,0.8 -6.1,2.6 -8.5,5.2 -0.5,0.6 -1.1,1.4 -1.6,2.1l0 0c-1.5,2.4 -2.2,4.9 -2.2,7.3 0.1,2.6 1.1,5.1 3,6.9l0.1 0c0.3,0.3 0.7,0.6 1.2,0.9 2.6,1.7 6,2 9.3,1.2 3.1,-0.8 6.2,-2.6 8.6,-5.2 0.6,-0.7 1.1,-1.4 1.6,-2.1 1.5,-2.3 2.2,-4.9 2.2,-7.3 0,-1 -0.2,-2.1 -0.6,-3.1 1.9,-1.7 3.3,-3.7 4.3,-6 1.4,-3.3 1.8,-7.1 0.9,-10.8l0 0 -0.1 -0.5c-1.3,-4.6 -4.3,-8.3 -8.1,-10.6 -3.9,-2.2 -8.6,-3 -13.3,-1.7l-15.7 4.2c-7.8,-3.4 -15.6,-5 -23.4,-5 -7.8,0 -15.5,1.7 -23.3,5l-15.7 -4.2c-4.7,-1.3 -9.4,-0.5 -13.3,1.7 -3.8,2.3 -6.9,6 -8.1,10.6l-0.1 0.5 0 0c-0.9,3.7 -0.5,7.5 0.9,10.8 1,2.3 2.4,4.3 4.2,6 -0.3,1 -0.5,2.1 -0.5,3.1 -0.1,2.4 0.7,5 2.2,7.3 0.5,0.7 1,1.4 1.6,2.1 2.4,2.6 5.5,4.4 8.5,5.2 3.4,0.8 6.8,0.5 9.4,-1.2 0.4,-0.3 0.8,-0.6 1.2,-0.9l0 0c2,-1.8 3,-4.3 3.1,-6.9 0,-2.4 -0.7,-4.9 -2.2,-7.3l-0.1 0c-0.4,-0.7 -1,-1.5 -1.6,-2.1 -2.3,-2.6 -5.4,-4.4 -8.5,-5.2 -2.8,-0.7 -5.8,-0.5 -8.2,0.6 -1.1,-1 -1.9,-2.2 -2.5,-3.5 -0.8,-2 -1.1,-4.3 -0.4,-6.6l0 -0.1c0.7,-2.7 2.5,-4.8 4.7,-6.1l0 0c2.3,-1.4 5.1,-1.8 7.8,-1.1l14.4 3.9c0.4,6.4 1.4,12.5 3.1,18.3 1.7,5.8 4,11.2 7.1,16.2l-5.7 10.4 6.2 23.6 7.5 0 -6 -22.7 6.4 -11.6 -1.2 -1.8c-3.3,-4.9 -5.7,-10.3 -7.4,-16.1 -1.5,-5.2 -2.5,-10.8 -2.9,-16.7 6.5,-2.6 13,-4 19.4,-4 6.5,0 13,1.3 19.4,3.9 -0.3,6 -1.3,11.6 -2.8,16.8 -1.7,5.8 -4.2,11.2 -7.4,16.1l-1.2 1.8 6.4 11.6zm22.8 -18.5c0,-0.9 0.3,-2 1.1,-3.2l0 0c0.2,-0.3 0.5,-0.7 0.9,-1.2 1.4,-1.5 3.1,-2.5 4.9,-3 1.5,-0.3 2.8,-0.3 3.8,0.3 0,0.1 0.1,0.1 0.2,0.2 0.5,0.4 0.7,1 0.7,1.7 0,0.9 -0.3,2.1 -1.1,3.2 -0.2,0.4 -0.5,0.8 -0.9,1.2 -1.4,1.5 -3.2,2.6 -4.9,3 -1.5,0.4 -2.8,0.3 -3.8,-0.3 -0.1,-0.1 -0.2,-0.1 -0.2,-0.2l0 0c-0.5,-0.4 -0.7,-1 -0.7,-1.7zm-76.3 -4.4c0.4,0.5 0.7,0.9 0.9,1.2l0 0c0.7,1.2 1.1,2.3 1.1,3.2 0,0.7 -0.3,1.3 -0.7,1.7l0 0c0,0.1 -0.1,0.1 -0.3,0.2 -0.9,0.6 -2.3,0.7 -3.7,0.3 -1.8,-0.4 -3.5,-1.5 -4.9,-3 -0.4,-0.4 -0.7,-0.8 -0.9,-1.2 -0.8,-1.1 -1.1,-2.3 -1.1,-3.2 0,-0.7 0.2,-1.3 0.7,-1.7 0.1,-0.1 0.1,-0.1 0.2,-0.2 0.9,-0.6 2.3,-0.6 3.8,-0.3 1.7,0.5 3.5,1.5 4.9,3z"/>
  </g>
 </g>
</svg>
