<?xml version="1.0" encoding="UTF-8"?>
<!DOCTYPE svg PUBLIC "-//W3C//DTD SVG 1.0//EN" "http://www.w3.org/TR/2001/REC-SVG-20010904/DTD/svg10.dtd">
<!-- Creator: CorelDRAW 2020 (64-Bit) -->
<svg xmlns="http://www.w3.org/2000/svg" xml:space="preserve" width="316px" height="316px" version="1.0" shape-rendering="geometricPrecision" text-rendering="geometricPrecision" image-rendering="optimizeQuality" fill-rule="evenodd" clip-rule="evenodd"
viewBox="0 0 186.6 186.6"
 xmlns:xlink="http://www.w3.org/1999/xlink"
 xmlns:xodm="http://www.corel.com/coreldraw/odm/2003">
 <g id="Capa_x0020_1">
  <metadata id="CorelCorpID_0Corel-Layer"/>
  <g id="_1373148217568">
   <rect fill="none" width="186.6" height="186.6"/>
   <g>
    <path fill="#7D69B2" d="M33.5 121.8l0 8.9 65.7 0 0 -68.7 -10.2 -6.8 -2.5 -1.6 -8.2 5.4 -8.2 -5.4 -8.2 5.4 -8.2 -5.4 -8.2 5.4 -8.3 -5.4 -12.6 8.4 0 59.8 8.9 0zm56.8 0l-56.8 0 0 -55 3.7 -2.5 8.3 5.4 8.2 -5.4 8.2 5.4 8.2 -5.4 8.2 5.4 8.2 -5.4 3.8 2.5 0 55z"/>
    <path fill="#7D69B2" d="M50.5 114.3c3.3,2 7.2,3.2 11.4,3.2 6.1,0 11.6,-2.5 15.6,-6.5l0 0c4,-4 6.5,-9.6 6.5,-15.7 0,-6.1 -2.5,-11.6 -6.5,-15.6 -4,-4 -9.5,-6.5 -15.6,-6.5l0 8.9c3.6,0 6.9,1.5 9.3,3.9 2.4,2.4 3.9,5.7 3.9,9.3 0,3.7 -1.5,7 -3.9,9.4 -2.3,2.4 -5.7,3.9 -9.3,3.9 -2.5,0 -4.9,-0.7 -6.8,-1.9 -2.1,-1.3 -3.8,-3.1 -4.9,-5.2 -0.5,-1 -0.9,-2 -1.2,-3 -0.2,-1 -0.3,-2 -0.3,-3.2l-8.9 0c0,1.8 0.2,3.6 0.6,5.3 0.4,1.8 1.1,3.5 1.9,5 1.9,3.6 4.7,6.6 8.2,8.7z"/>
    <path fill="#7D69B2" d="M117.4 130.5l0 9.6c-1.6,0.7 -3,1.6 -4.2,2.8l0 0c-2.3,2.2 -3.6,5.3 -3.6,8.6 0,3.4 1.3,6.5 3.6,8.7l0 0c2.2,2.2 5.3,3.6 8.6,3.6 3.4,0 6.5,-1.4 8.7,-3.6 2.2,-2.2 3.6,-5.3 3.6,-8.7 0,-3.3 -1.4,-6.4 -3.6,-8.6 -1.2,-1.2 -2.6,-2.1 -4.2,-2.8l0 -9.6 -8.9 0zm2.1 18.7c0.6,-0.6 1.4,-1 2.3,-1 0.9,0 1.8,0.4 2.4,1 0.6,0.6 1,1.4 1,2.3 0,1 -0.4,1.8 -1,2.4 -0.6,0.6 -1.5,1 -2.4,1 -0.9,0 -1.7,-0.4 -2.3,-1l-0.1 0c-0.5,-0.6 -0.9,-1.4 -0.9,-2.4 0,-0.9 0.4,-1.7 0.9,-2.3l0.1 0z"/>
    <path fill="#7D69B2" d="M122.8 28.3l0 0zm-36.5 3.4l11.1 0 0 2.6c0,0.7 -0.3,1.3 -0.7,1.8l-0.1 0c-0.4,0.5 -1,0.7 -1.8,0.7l-5.9 0c-0.7,0 -1.3,-0.2 -1.8,-0.7 -0.5,-0.5 -0.8,-1.1 -0.8,-1.8l0 -2.6zm22.2 98.8l8.9 0 0 -8.9 0 -61.8 8.9 0 0 61.8 0 8.9 8.9 0 0 -79.6 -8.9 0 0 -9.6c0,-2.6 1,-5 2.8,-6.7l0 0c1.7,-1.8 4.1,-2.9 6.7,-2.9l1.5 0 0 2.6c0,3.2 1.3,6 3.4,8.1 2.1,2.1 4.9,3.4 8.1,3.4l6 0c3.1,0 6,-1.3 8,-3.4l0.1 0c2,-2.1 3.3,-5 3.3,-8.1l0 -11.5 -4.4 0 -20 0 -4.5 0 -1.5 0c-5,0 -9.7,2.1 -13,5.5 -0.3,0.3 -0.7,0.7 -1,1 -0.3,-0.4 -0.6,-0.7 -0.9,-1 -3.4,-3.4 -8,-5.5 -13.1,-5.5l-1.5 0 -20 0 0 8.9 -8.9 0 0 2.6c0,3.2 1.3,6 3.4,8.1 2.1,2.1 4.9,3.4 8.1,3.4l5.9 0c3.2,0 6,-1.3 8.1,-3.4l0 0c2.1,-2.1 3.4,-5 3.4,-8.1l0 -2.6 1.5 0c2.6,0 5,1.1 6.8,2.9 1.7,1.7 2.8,4.1 2.8,6.7l0 9.6 -4.5 0 -4.4 0 0 79.6zm37.7 -96.2l0 -2.6 11.1 0 0 2.6c0,0.7 -0.3,1.3 -0.7,1.8l0 0c-0.5,0.5 -1.1,0.7 -1.8,0.7l-6 0c-0.7,0 -1.3,-0.2 -1.8,-0.7 -0.5,-0.5 -0.8,-1.1 -0.8,-1.8z"/>
   </g>
  </g>
 </g>
</svg>
