<?xml version="1.0" encoding="UTF-8"?>
<!DOCTYPE svg PUBLIC "-//W3C//DTD SVG 1.0//EN" "http://www.w3.org/TR/2001/REC-SVG-20010904/DTD/svg10.dtd">
<!-- Creator: CorelDRAW 2020 (64-Bit) -->
<svg xmlns="http://www.w3.org/2000/svg" xml:space="preserve" width="240px" height="239px" version="1.0" shape-rendering="geometricPrecision" text-rendering="geometricPrecision" image-rendering="optimizeQuality" fill-rule="evenodd" clip-rule="evenodd"
viewBox="0 0 105.4 104.9"
 xmlns:xlink="http://www.w3.org/1999/xlink"
 xmlns:xodm="http://www.corel.com/coreldraw/odm/2003">
 <g id="Capa_x0020_1">
  <metadata id="CorelCorpID_0Corel-Layer"/>
  <g id="_2427173149728">
   <path fill="#7D69B2" d="M6.6 73.6l0 6.6 48.9 0 0 -51.1 -7.6 -5 -1.8 -1.2 -6.1 4 -6.1 -4 -6.1 4 -6.1 -4 -6.2 4 -6.1 -4 -9.4 6.2 0 44.5 6.6 0zm42.3 0l-42.3 0 0 -40.9 2.8 -1.9 6.1 4 6.2 -4 6.1 4 6.1 -4 6.1 4 6.1 -4 2.8 1.9 0 40.9z"/>
   <path fill="#7D69B2" d="M19.3 68c2.4,1.5 5.4,2.4 8.5,2.4 4.5,0 8.6,-1.8 11.6,-4.8l0 0c3,-3 4.8,-7.1 4.8,-11.7 0,-4.5 -1.8,-8.6 -4.8,-11.6 -3,-3 -7.1,-4.8 -11.6,-4.8l0 6.6c2.7,0 5.1,1.1 6.9,2.9 1.8,1.8 2.9,4.2 2.9,6.9 0,2.8 -1.1,5.2 -2.9,7 -1.8,1.8 -4.2,2.9 -6.9,2.9 -1.9,0 -3.6,-0.5 -5.1,-1.4 -1.6,-1 -2.8,-2.3 -3.7,-3.9 -0.3,-0.7 -0.6,-1.4 -0.8,-2.2 -0.2,-0.7 -0.3,-1.5 -0.3,-2.4l-6.6 0c0,1.4 0.2,2.7 0.5,4 0.3,1.3 0.8,2.5 1.4,3.7 1.4,2.6 3.5,4.9 6.1,6.4z"/>
   <path fill="#7D69B2" d="M69 80.1l0 7.2c-1.1,0.4 -2.2,1.1 -3.1,2l0 0c-1.6,1.7 -2.7,4 -2.7,6.5 0,2.5 1.1,4.7 2.7,6.4l0 0c1.7,1.6 4,2.7 6.5,2.7 2.5,0 4.7,-1.1 6.4,-2.7 1.6,-1.7 2.7,-3.9 2.7,-6.4 0,-2.6 -1.1,-4.8 -2.7,-6.5 -0.9,-0.9 -2,-1.6 -3.1,-2l0 -7.2 -6.7 0zm1.6 13.9c0.4,-0.5 1.1,-0.7 1.8,-0.7 0.6,0 1.3,0.2 1.7,0.7 0.5,0.4 0.7,1.1 0.7,1.8 0,0.6 -0.2,1.3 -0.7,1.7 -0.4,0.5 -1.1,0.7 -1.7,0.7 -0.7,0 -1.4,-0.2 -1.8,-0.7l0 0c-0.5,-0.4 -0.7,-1.1 -0.7,-1.7 0,-0.7 0.2,-1.4 0.7,-1.8l0 0z"/>
   <path fill="#7D69B2" d="M73.1 4l0 0zm-27.1 2.6l8.2 0 0 1.9c0,0.6 -0.2,1 -0.6,1.4l0 0c-0.3,0.3 -0.8,0.5 -1.3,0.5l-4.5 0c-0.5,0 -0.9,-0.2 -1.3,-0.5 -0.3,-0.4 -0.5,-0.9 -0.5,-1.4l0 -1.9zm16.4 73.5l6.6 0 0 -6.7 0 -45.9 6.7 0 0 45.9 0 6.7 6.6 0 0 -59.3 -6.6 0 0 -7.1c0,-1.9 0.8,-3.7 2,-5l0.1 0c1.3,-1.3 3,-2.1 5,-2.1l1.1 0 0 1.9c0,2.4 1,4.5 2.5,6 1.5,1.6 3.7,2.6 6,2.6l4.5 0c2.3,0 4.4,-1 6,-2.6l0 0c1.5,-1.5 2.5,-3.6 2.5,-6l0 -8.5 -3.3 0 -14.9 0 -3.3 0 -1.1 0c-3.8,0 -7.2,1.5 -9.7,4 -0.3,0.3 -0.5,0.5 -0.7,0.8 -0.3,-0.3 -0.5,-0.5 -0.8,-0.8 -2.5,-2.5 -5.9,-4 -9.7,-4l-1.1 0 -14.8 0 0 6.6 -6.7 0 0 1.9c0,2.4 1,4.5 2.5,6 1.6,1.6 3.7,2.6 6,2.6l4.5 0c2.3,0 4.4,-1 6,-2.6l0 0c1.6,-1.5 2.5,-3.6 2.5,-6l0 -1.9 1.1 0c2,0 3.8,0.8 5,2.1 1.3,1.3 2.1,3.1 2.1,5l0 7.1 -3.3 0 -3.3 0 0 59.3zm28.1 -71.6l0 -1.9 8.3 0 0 1.9c0,0.6 -0.3,1 -0.6,1.4l0 0c-0.3,0.3 -0.8,0.5 -1.3,0.5l-4.5 0c-0.5,0 -1,-0.2 -1.3,-0.5 -0.4,-0.4 -0.6,-0.9 -0.6,-1.4z"/>
  </g>
 </g>
</svg>
