<?xml version="1.0" encoding="UTF-8"?>
<!DOCTYPE svg PUBLIC "-//W3C//DTD SVG 1.0//EN" "http://www.w3.org/TR/2001/REC-SVG-20010904/DTD/svg10.dtd">
<!-- Creator: CorelDRAW 2020 (64-Bit) -->
<svg xmlns="http://www.w3.org/2000/svg" xml:space="preserve" width="316px" height="316px" version="1.0" shape-rendering="geometricPrecision" text-rendering="geometricPrecision" image-rendering="optimizeQuality" fill-rule="evenodd" clip-rule="evenodd"
viewBox="0 0 186.6 186.6"
 xmlns:xlink="http://www.w3.org/1999/xlink"
 xmlns:xodm="http://www.corel.com/coreldraw/odm/2003">
 <g id="Capa_x0020_1">
  <metadata id="CorelCorpID_0Corel-Layer"/>
  <g id="_1373214029296">
   <rect fill="none" width="186.6" height="186.6"/>
   <g>
    <path fill="#7D69B2" d="M55.1 37.9l0 8.9 38.2 0 38.2 0 0 -8.9 -76.4 0z"/>
    <path fill="#7D69B2" d="M55.1 46.8l-8.9 0 0 44.4c0,12.4 4.8,23.2 12.1,32.3 8.7,10.8 21,19 33.2,24.4l1.8 0.8 1.8 -0.8c12.2,-5.4 24.5,-13.6 33.2,-24.4 7.4,-9.1 12.1,-19.9 12.1,-32.3l0 -44.4 -8.9 0 0 44.4c0,10.2 -4,19.1 -10.1,26.7 -7.3,9.1 -17.6,16.2 -28.1,21.1 -10.4,-4.9 -20.8,-12 -28.1,-21.1 -6.1,-7.6 -10.1,-16.5 -10.1,-26.7l0 -44.4z"/>
    <path fill="#7D69B2" d="M83.3 86.5c0,-2.8 1.1,-5.3 3,-7.1 1.8,-1.8 4.3,-2.9 7,-2.9 2.8,0 5.3,1.1 7.1,2.9 1.8,1.8 2.9,4.3 2.9,7.1 0,2.7 -1.1,5.2 -2.9,7 -1.8,1.8 -4.3,3 -7.1,3 -2.7,0 -5.2,-1.2 -7,-3 -1.9,-1.8 -3,-4.3 -3,-7zm-4.2 -20.5c-1.7,-1.8 -4.5,-1.8 -6.3,0 -1.7,1.7 -1.7,4.5 0,6.3l4.4 4.3c-1,1.7 -1.8,3.5 -2.3,5.4l-6.1 0c-2.5,0 -4.5,2 -4.5,4.5 0,2.4 2,4.4 4.5,4.4l6.2 0c0.4,2 1.2,3.8 2.2,5.4l-4.4 4.4c-1.7,1.7 -1.7,4.5 0,6.3 1.8,1.7 4.6,1.7 6.3,0l4.4 -4.4c1.6,1 3.4,1.8 5.4,2.2l0 6.2c0,2.5 2,4.5 4.4,4.5 2.5,0 4.5,-2 4.5,-4.5l0 -6.2c1.9,-0.4 3.7,-1.2 5.4,-2.2l4.3 4.4c1.8,1.7 4.6,1.7 6.3,0 1.8,-1.8 1.8,-4.6 0,-6.3l-4.3 -4.4c1,-1.6 1.7,-3.4 2.2,-5.4l6.2 0c2.4,0 4.4,-2 4.4,-4.4 0,-2.5 -2,-4.5 -4.4,-4.5l-6.2 0c-0.5,-1.9 -1.2,-3.7 -2.2,-5.4l4.3 -4.3c1.8,-1.8 1.8,-4.6 0,-6.3 -1.7,-1.8 -4.5,-1.8 -6.3,0l-4.3 4.3c-1.7,-1 -3.5,-1.7 -5.4,-2.2l0 -6.2c0,-2.4 -2,-4.4 -4.5,-4.4 -2.4,0 -4.4,2 -4.4,4.4l0 6.2c-2,0.5 -3.8,1.2 -5.4,2.2l-4.4 -4.3z"/>
   </g>
  </g>
 </g>
</svg>
