<?xml version="1.0" encoding="UTF-8"?>
<!DOCTYPE svg PUBLIC "-//W3C//DTD SVG 1.0//EN" "http://www.w3.org/TR/2001/REC-SVG-20010904/DTD/svg10.dtd">
<!-- Creator: CorelDRAW 2020 (64-Bit) -->
<svg xmlns="http://www.w3.org/2000/svg" xml:space="preserve" width="169px" height="226px" version="1.0" shape-rendering="geometricPrecision" text-rendering="geometricPrecision" image-rendering="optimizeQuality" fill-rule="evenodd" clip-rule="evenodd"
viewBox="0 0 52.1 69.4"
 xmlns:xlink="http://www.w3.org/1999/xlink"
 xmlns:xodm="http://www.corel.com/coreldraw/odm/2003">
 <g id="Capa_x0020_1">
  <metadata id="CorelCorpID_0Corel-Layer"/>
  <g id="_2427157704464">
   <path fill="#7D69B2" d="M28.5 69.4l0 -33.1 -4.6 0 0 33.1 4.6 0z"/>
   <path fill="#7D69B2" d="M19.5 36.3l4.4 0 0 -4.6 4.6 0 0 4.6 4.4 0 0 -6.2c1.3,-0.7 2.6,-1.6 3.6,-2.6 2.7,-2.7 4.3,-6.3 4.3,-10.3l0 -2.4 -24.3 0 0 4.7 19.4 0c-0.4,1.8 -1.4,3.4 -2.6,4.7 -1.8,1.8 -4.3,2.9 -7.1,2.9 -2.7,0 -5.2,-1.1 -7,-2.9 -1.3,-1.3 -2.2,-2.9 -2.7,-4.7l-4.7 0c0.5,3.1 2,5.8 4.1,8 1.1,1 2.3,1.9 3.6,2.6l0 6.2z"/>
   <path fill="#7D69B2" d="M46.2 11.9l0 0zm0 32.2l0 0zm-43.5 -22.6l0 0zm0 32.2l0 0zm3.2 -22.5l0 0zm8 -19.5l24.3 0 2.3 0 0 -3.7c0,-0.7 0.2,-1.4 0.6,-2 0.4,-0.5 1,-1 1.7,-1.2 0.7,-0.2 1.5,-0.2 2.1,0 0.7,0.2 1.3,0.6 1.7,1.2 0.7,0.9 0.9,2 0.9,3l0 0c-0.1,1.1 -0.5,2.1 -1.3,2.9 -1.8,1.8 -2.7,4.1 -2.7,6.4 0,2.4 0.9,4.7 2.7,6.5 0.8,0.9 1.3,2 1.3,3.2 0,1.1 -0.5,2.3 -1.3,3.2 -1.8,1.7 -2.7,4.1 -2.7,6.4 0,2.3 0.9,4.7 2.7,6.5 0.8,0.8 1.3,2 1.3,3.1 0,1.2 -0.5,2.4 -1.3,3.2 -1.8,1.8 -2.7,4.1 -2.7,6.5 0,2.3 0.9,4.7 2.7,6.4l3.2 -3.2c-0.8,-0.9 -1.3,-2.1 -1.3,-3.2 0,-1.2 0.5,-2.3 1.3,-3.2 1.8,-1.8 2.7,-4.1 2.7,-6.5 0,-2.3 -0.9,-4.6 -2.7,-6.4l0 0c-0.8,-0.9 -1.3,-2 -1.3,-3.2 0,-1.2 0.5,-2.3 1.3,-3.2l0 0c1.8,-1.8 2.7,-4.1 2.7,-6.4 0,-2.4 -0.9,-4.7 -2.7,-6.5 -0.8,-0.9 -1.3,-2 -1.3,-3.2 0,-1.1 0.5,-2.3 1.3,-3.2l0 0c1.6,-1.5 2.5,-3.6 2.7,-5.7 0.1,-2.2 -0.4,-4.3 -1.8,-6.1 -1,-1.4 -2.4,-2.4 -4,-2.9 -1.6,-0.5 -3.3,-0.5 -4.9,0 -1.7,0.6 -3.1,1.6 -4,2.9 -0.8,1.1 -1.3,2.4 -1.5,3.8l-19.7 0c-0.2,-1.4 -0.7,-2.7 -1.4,-3.8 -1,-1.3 -2.4,-2.3 -4.1,-2.9 -1.6,-0.5 -3.3,-0.5 -4.9,0 -1.6,0.5 -3,1.5 -4,2.9 -1.3,1.8 -1.9,3.9 -1.8,6.1 0.2,2.1 1.1,4.2 2.7,5.7 0.8,0.9 1.3,2.1 1.3,3.2 0,1.2 -0.5,2.3 -1.3,3.2 -1.8,1.8 -2.7,4.1 -2.7,6.5 0,2.3 0.9,4.6 2.7,6.4l0 0c0.8,0.9 1.3,2.1 1.3,3.2 0,1.2 -0.5,2.3 -1.3,3.2 -1.8,1.8 -2.7,4.1 -2.7,6.4 0,2.4 0.9,4.7 2.7,6.5 0.8,0.9 1.3,2 1.3,3.2 0,1.1 -0.5,2.3 -1.3,3.2l3.2 3.2c1.8,-1.7 2.7,-4.1 2.7,-6.4 0,-2.3 -0.9,-4.7 -2.7,-6.5l0 0c-0.8,-0.8 -1.3,-2 -1.3,-3.2 0,-1.1 0.5,-2.3 1.3,-3.1 1.8,-1.8 2.7,-4.2 2.7,-6.5 0,-2.3 -0.9,-4.7 -2.7,-6.4 -0.8,-0.9 -1.3,-2.1 -1.3,-3.2 0,-1.2 0.5,-2.3 1.3,-3.2l0 0c1.8,-1.8 2.7,-4.1 2.7,-6.5 0,-2.3 -0.9,-4.6 -2.7,-6.4 -0.7,-0.8 -1.2,-1.8 -1.3,-2.9l0 0c0,-1 0.3,-2.1 0.9,-3 0.5,-0.6 1,-1 1.7,-1.2 0.6,-0.2 1.4,-0.2 2.1,0 0.7,0.2 1.3,0.7 1.7,1.2 0.4,0.6 0.6,1.3 0.6,2l0 3.7 2.3 0z"/>
  </g>
 </g>
</svg>
