<?xml version="1.0" encoding="UTF-8"?>
<!DOCTYPE svg PUBLIC "-//W3C//DTD SVG 1.0//EN" "http://www.w3.org/TR/2001/REC-SVG-20010904/DTD/svg10.dtd">
<!-- Creator: CorelDRAW 2020 (64-Bit) -->
<svg xmlns="http://www.w3.org/2000/svg" xml:space="preserve" width="316px" height="316px" version="1.0" shape-rendering="geometricPrecision" text-rendering="geometricPrecision" image-rendering="optimizeQuality" fill-rule="evenodd" clip-rule="evenodd"
viewBox="0 0 186.6 186.6"
 xmlns:xlink="http://www.w3.org/1999/xlink"
 xmlns:xodm="http://www.corel.com/coreldraw/odm/2003">
 <g id="Capa_x0020_1">
  <metadata id="CorelCorpID_0Corel-Layer"/>
  <g id="_1373139481536">
   <rect fill="none" width="186.6" height="186.6"/>
   <g>
    <path fill="#7D69B2" d="M98.1 159.9l0 -63.5 -8.9 0 0 63.5 8.9 0z"/>
    <path fill="#7D69B2" d="M80.8 96.4l8.4 0 0 -8.9 8.9 0 0 8.9 8.4 0 0 -11.9c2.5,-1.3 4.9,-3 6.9,-5.1 5.1,-5 8.3,-12.1 8.3,-19.8l0 -4.4 -46.6 0 0 8.9 37.1 0c-0.8,3.5 -2.6,6.6 -5.1,9 -3.4,3.5 -8.2,5.7 -13.5,5.7 -5.2,0 -10,-2.2 -13.5,-5.7 -2.4,-2.4 -4.2,-5.5 -5.1,-9l-9 0c0.9,5.9 3.8,11.2 7.8,15.3 2.1,2.1 4.4,3.8 7,5.1l0 11.9z"/>
    <path fill="#7D69B2" d="M131.9 49.5l0 0zm0 61.8l0 0zm-83.5 -43.3l0 0zm0 61.8l0 0zm6.3 -43.3l0 0zm15.4 -37.3l46.5 0 4.4 0 0 -7.1c0,-1.4 0.4,-2.8 1.2,-3.8 0.8,-1.1 1.9,-1.9 3.3,-2.4 1.4,-0.4 2.8,-0.4 4,0 1.3,0.4 2.4,1.2 3.3,2.3 1.2,1.7 1.8,3.8 1.6,5.8l0 0.1c-0.1,1.9 -1,3.9 -2.5,5.4 -3.4,3.4 -5.1,7.9 -5.1,12.4 0,4.5 1.7,9 5.1,12.4 1.7,1.6 2.5,3.9 2.5,6.1 0,2.2 -0.8,4.4 -2.5,6.1 -3.4,3.4 -5.1,7.9 -5.1,12.4 0,4.5 1.7,9 5.1,12.4 1.7,1.6 2.5,3.9 2.5,6.1 0,2.2 -0.8,4.4 -2.5,6.1 -3.4,3.4 -5.1,7.9 -5.1,12.4 0,4.5 1.7,8.9 5.1,12.4l6.3 -6.3c-1.7,-1.7 -2.5,-3.9 -2.5,-6.1 0,-2.2 0.8,-4.5 2.5,-6.1 3.4,-3.4 5.1,-7.9 5.1,-12.4 0,-4.5 -1.7,-9 -5.1,-12.4l0 0c-1.7,-1.7 -2.5,-3.9 -2.5,-6.1 0,-2.2 0.8,-4.5 2.5,-6.1l0 0c3.4,-3.5 5.1,-7.9 5.1,-12.4 0,-4.5 -1.7,-9 -5.1,-12.4 -1.7,-1.7 -2.5,-3.9 -2.5,-6.1 0,-2.2 0.8,-4.5 2.5,-6.1l0 0c3.1,-3.1 4.8,-7.1 5.1,-11.1 0.3,-4.1 -0.9,-8.3 -3.4,-11.7 -2,-2.7 -4.7,-4.6 -7.7,-5.6 -3,-0.9 -6.3,-1 -9.5,0.1 -3.2,1 -5.8,3 -7.7,5.6 -1.5,2.1 -2.5,4.5 -2.8,7.2l-37.8 0c-0.3,-2.7 -1.3,-5.1 -2.8,-7.2 -1.8,-2.6 -4.5,-4.6 -7.7,-5.6 -3.1,-1.1 -6.4,-1 -9.5,-0.1 -3,1 -5.7,2.9 -7.7,5.6 -2.5,3.4 -3.6,7.6 -3.3,11.7 0.3,4 2,8 5,11.1 1.7,1.7 2.5,3.9 2.5,6.1 0,2.2 -0.8,4.4 -2.5,6.1 -3.4,3.4 -5.1,7.9 -5.1,12.4 0,4.5 1.7,8.9 5.1,12.4l0 0c1.7,1.6 2.5,3.9 2.5,6.1 0,2.2 -0.8,4.4 -2.5,6.1 -3.4,3.4 -5.1,7.9 -5.1,12.4 0,4.5 1.7,9 5.1,12.4 1.7,1.6 2.5,3.8 2.5,6.1 0,2.2 -0.8,4.4 -2.5,6.1l6.3 6.3c3.4,-3.4 5.1,-7.9 5.1,-12.4 0,-4.5 -1.7,-9 -5.1,-12.4l0 0c-1.7,-1.7 -2.5,-3.9 -2.5,-6.1 0,-2.3 0.8,-4.5 2.5,-6.1 3.4,-3.5 5.1,-7.9 5.1,-12.4 0,-4.5 -1.7,-9 -5.1,-12.4 -1.7,-1.7 -2.5,-3.9 -2.5,-6.1 0,-2.2 0.8,-4.5 2.5,-6.1l0 0c3.4,-3.5 5.1,-7.9 5.1,-12.4 0,-4.5 -1.7,-9 -5.1,-12.4 -1.5,-1.5 -2.3,-3.5 -2.5,-5.4l0 -0.1c-0.1,-2 0.4,-4.1 1.7,-5.8 0.8,-1.1 2,-1.9 3.2,-2.3 1.3,-0.4 2.7,-0.4 4.1,0 1.3,0.5 2.5,1.3 3.2,2.4 0.8,1 1.2,2.4 1.2,3.8l0 7.1 4.5 0z"/>
   </g>
  </g>
 </g>
</svg>
