<?xml version="1.0" encoding="UTF-8"?>
<!DOCTYPE svg PUBLIC "-//W3C//DTD SVG 1.0//EN" "http://www.w3.org/TR/2001/REC-SVG-20010904/DTD/svg10.dtd">
<!-- Creator: CorelDRAW 2020 (64-Bit) -->
<svg xmlns="http://www.w3.org/2000/svg" xml:space="preserve" width="233px" height="266px" version="1.0" shape-rendering="geometricPrecision" text-rendering="geometricPrecision" image-rendering="optimizeQuality" fill-rule="evenodd" clip-rule="evenodd"
viewBox="0 0 99.2 113.2"
 xmlns:xlink="http://www.w3.org/1999/xlink"
 xmlns:xodm="http://www.corel.com/coreldraw/odm/2003">
 <g id="Capa_x0020_1">
  <metadata id="CorelCorpID_0Corel-Layer"/>
  <g id="_2427173158800">
   <path fill="#7D69B2" d="M80.8 54.3c-1.8,1.8 -4.2,2.8 -6.9,2.8 -2.7,0 -5.2,-1 -6.9,-2.8 -1.8,-1.8 -2.9,-4.2 -2.9,-6.9 0,-2.8 1.1,-5.2 2.9,-7 1.7,-1.7 4.2,-2.8 6.9,-2.8 2.7,0 5.1,1.1 6.9,2.8 1.8,1.8 2.9,4.2 2.9,7 0,2.7 -1.1,5.1 -2.9,6.9zm9 -10.2c-0.4,-2 -1.3,-4 -2.4,-5.7l4.4 -4.4c1.2,-1.3 1.2,-3.3 0,-4.5 -1.3,-1.3 -3.3,-1.3 -4.6,0l-4.3 4.4c-1.8,-1.2 -3.7,-2 -5.8,-2.4l0 -6.2c0,-1.8 -1.4,-3.2 -3.2,-3.2 -1.8,0 -3.2,1.4 -3.2,3.2l0 6.2c-2.1,0.4 -4.1,1.2 -5.8,2.4l-4.4 -4.4c-1.2,-1.3 -3.2,-1.3 -4.5,0 -1.2,1.2 -1.2,3.2 0,4.5l4.4 4.4c-1.1,1.7 -2,3.7 -2.4,5.7l-6.2 0c-1.8,0 -3.2,1.5 -3.2,3.3 0,1.7 1.4,3.2 3.2,3.2l6.2 0c0.4,2.1 1.3,4 2.4,5.7l-4.4 4.4c-1.2,1.3 -1.2,3.3 0,4.5 1.3,1.3 3.3,1.3 4.5,0l4.4 -4.3c1.7,1.1 3.7,1.9 5.8,2.3l0 6.2c0,1.8 1.4,3.2 3.2,3.2 1.8,0 3.2,-1.4 3.2,-3.2l0 -6.2c2.1,-0.4 4,-1.2 5.8,-2.3l4.3 4.3c1.3,1.3 3.3,1.3 4.6,0 1.2,-1.2 1.2,-3.2 0,-4.5l-4.4 -4.4c1.1,-1.7 2,-3.6 2.4,-5.7l6.2 0c1.8,0 3.2,-1.5 3.2,-3.2 0,-1.8 -1.4,-3.3 -3.2,-3.3l-6.2 0z"/>
   <path fill="#7D69B2" d="M81.3 76.4c-1.2,-1.3 -3.2,-1.3 -4.5,0l-3.1 3.1c-1.2,-0.7 -2.5,-1.3 -3.9,-1.6l0 -4.4c0,-1.8 -1.4,-3.2 -3.2,-3.2 -1.8,0 -3.2,1.4 -3.2,3.2l0 4.4c-1.4,0.3 -2.7,0.9 -3.9,1.6l-3.1 -3.1c-1.3,-1.3 -3.3,-1.3 -4.6,0 -1.2,1.2 -1.2,3.3 0,4.5l3.2 3.1c-0.7,1.2 -1.3,2.5 -1.6,3.9l-4.5 0c-1.7,0 -3.2,1.5 -3.2,3.2 0,1.8 1.5,3.2 3.2,3.2l4.5 0c0.3,1.4 0.9,2.7 1.6,3.9l-3.2 3.1c-1.2,1.3 -1.2,3.3 0,4.6 1.3,1.2 3.3,1.2 4.6,0l3.1 -3.2c1.2,0.8 2.5,1.3 3.9,1.6l0 4.5c0,1.7 1.4,3.2 3.2,3.2 1.8,0 3.2,-1.5 3.2,-3.2l0 -4.5c1.4,-0.3 2.7,-0.8 3.9,-1.6l3.1 3.2c1.3,1.2 3.3,1.2 4.5,0 1.3,-1.3 1.3,-3.3 0,-4.6l-3.1 -3.1c0.7,-1.2 1.3,-2.5 1.6,-3.9l4.5 0c1.7,0 3.2,-1.4 3.2,-3.2 0,-1.7 -1.5,-3.2 -3.2,-3.2l-4.5 0c-0.3,-1.4 -0.9,-2.7 -1.6,-3.9l3.1 -3.1c1.3,-1.2 1.3,-3.3 0,-4.5zm-9.6 9.6c1.3,1.3 2.1,3.1 2.1,5.1 0,2 -0.8,3.8 -2.1,5.1 -1.3,1.3 -3.1,2.1 -5.1,2.1 -2,0 -3.8,-0.8 -5.1,-2.1 -1.3,-1.3 -2.1,-3.1 -2.1,-5.1 0,-2 0.8,-3.8 2.1,-5.1 1.3,-1.3 3.1,-2.1 5.1,-2.1 2,0 3.8,0.8 5.1,2.1z"/>
   <g>
    <path fill="#7D69B2" d="M16.5 33.6l17.8 0 0 8.7 -8.9 0 0 6.4 8.9 0 0 7.2 -8.9 0 0 6.5 8.9 0 0 7.2 -8.9 0 0 6.4 8.9 0 0 12.3 6.4 0 0 -54.7 10.1 0 0 -6.4 -10.1 0 -12.1 0 0 -20.8 8.1 0 0 -6.4 -22.6 0 0 6.4 8.1 0 0 20.8 -5.7 0 0 6.4z"/>
    <path fill="#7D69B2" d="M16.5 88.3l0 -54.7 -6.4 0 0 61.1 12.1 0 0 18.5 6.4 0 0 -18.5 5.7 0 0 -6.4 -17.8 0z"/>
    <path fill="#7D69B2" d="M0 33.6l10.1 0 0 -6.4 -10.1 0 0 6.4z"/>
   </g>
  </g>
 </g>
</svg>
