<?xml version="1.0" encoding="UTF-8"?>
<!DOCTYPE svg PUBLIC "-//W3C//DTD SVG 1.0//EN" "http://www.w3.org/TR/2001/REC-SVG-20010904/DTD/svg10.dtd">
<!-- Creator: CorelDRAW 2020 (64-Bit) -->
<svg xmlns="http://www.w3.org/2000/svg" xml:space="preserve" width="268px" height="268px" version="1.0" shape-rendering="geometricPrecision" text-rendering="geometricPrecision" image-rendering="optimizeQuality" fill-rule="evenodd" clip-rule="evenodd"
viewBox="0 0 554.1 554.1"
 xmlns:xlink="http://www.w3.org/1999/xlink"
 xmlns:xodm="http://www.corel.com/coreldraw/odm/2003">
 <g id="Capa_x0020_1">
  <metadata id="CorelCorpID_0Corel-Layer"/>
  <g id="_1373136001120">
   <rect fill="none" width="554.1" height="554.1"/>
   <g>
    <path fill="#FF99CC" fill-rule="nonzero" d="M134.8 217.6l52.9 0c10.1,0 19.7,2 28.6,5.6l0 -28.8 -28.6 0c-21.2,0 -40.5,-8.6 -54.5,-22.6 -13.9,-13.9 -22.6,-33.2 -22.6,-54.4l0 -77.1 24.2 0 52.9 0c21.2,0 40.5,8.6 54.4,22.6 14,14 22.7,33.2 22.7,54.5l0 25.4 0 51.6 0 100.3 0 37.6c0,36.7 14.9,69.9 39,94 24.1,24.2 57.4,39.1 94,39.1l21.5 0 0 48.5 -21.5 0c-50,0 -95.4,-20.4 -128.2,-53.3 -24,-24 -41.3,-54.6 -49,-88.8l-32.9 0c-21.2,0 -40.5,-8.6 -54.5,-22.6 -13.9,-14 -22.6,-33.2 -22.6,-54.5l0 -77.1 24.2 0zm52.9 -128.9l-28.6 0 0 28.7c0,7.8 3.2,15 8.4,20.2 5.2,5.2 12.3,8.4 20.2,8.4l28.6 0 0 -3.2 0 -25.4c0,-7.9 -3.2,-15 -8.4,-20.2 -5.2,-5.2 -12.4,-8.5 -20.2,-8.5zm0 177.4l-28.6 0 0 28.6c0,7.9 3.2,15 8.4,20.2 5.2,5.2 12.3,8.5 20.2,8.5l28.6 0 0 -28.7c0,-7.8 -3.2,-15 -8.4,-20.2 -5.2,-5.2 -12.4,-8.4 -20.2,-8.4z"/>
    <path fill="#FF99CC" d="M337.9 146l0 -28.6c0,-7.9 3.2,-15 8.4,-20.2 5.2,-5.2 12.3,-8.5 20.2,-8.5l28.6 0 0 28.7c0,7.8 -3.2,15 -8.4,20.2 -5.2,5.2 -12.4,8.4 -20.2,8.4l-28.6 0zm28.6 48.4c21.2,0 40.5,-8.6 54.4,-22.6 14,-13.9 22.7,-33.2 22.7,-54.4l0 -77.1 -77.1 0c-21.3,0 -40.5,8.6 -54.5,22.6 -14,14 -22.6,33.2 -22.6,54.5l0 28.6 48.5 0 0 48.4 28.6 0z"/>
    <path fill="#FF99CC" d="M337.9 323.4l0 -28.7c0,-7.8 3.2,-15 8.4,-20.2 5.2,-5.2 12.3,-8.4 20.2,-8.4l28.6 0 0 28.6c0,7.9 -3.2,15 -8.4,20.2 -5.2,5.2 -12.4,8.5 -20.2,8.5l-28.6 0zm28.6 48.4c21.2,0 40.5,-8.6 54.4,-22.6 14,-14 22.7,-33.2 22.7,-54.5l0 -77.1 -77.1 0c-21.3,0 -40.5,8.7 -54.5,22.7 -14,13.9 -22.6,33.2 -22.6,54.4l0 28.7 48.5 0 0 48.4 28.6 0z"/>
   </g>
   <g>
    <path fill="#FF99CC" fill-rule="nonzero" d="M134.8 217.6l52.9 0c10.1,0 19.7,2 28.6,5.6l0 -28.8 -28.6 0c-21.2,0 -40.5,-8.6 -54.5,-22.6 -13.9,-13.9 -22.6,-33.2 -22.6,-54.4l0 -77.1 24.2 0 52.9 0c21.2,0 40.5,8.6 54.4,22.6 14,14 22.7,33.2 22.7,54.5l0 25.4 0 51.6 0 100.3 0 37.6c0,36.7 14.9,69.9 39,94 24.1,24.2 57.4,39.1 94,39.1l21.5 0 0 48.5 -21.5 0c-50,0 -95.4,-20.4 -128.2,-53.3 -24,-24 -41.3,-54.6 -49,-88.8l-32.9 0c-21.2,0 -40.5,-8.6 -54.5,-22.6 -13.9,-14 -22.6,-33.2 -22.6,-54.5l0 -77.1 24.2 0zm52.9 -128.9l-28.6 0 0 28.7c0,7.8 3.2,15 8.4,20.2 5.2,5.2 12.3,8.4 20.2,8.4l28.6 0 0 -3.2 0 -25.4c0,-7.9 -3.2,-15 -8.4,-20.2 -5.2,-5.2 -12.4,-8.5 -20.2,-8.5zm0 177.4l-28.6 0 0 28.6c0,7.9 3.2,15 8.4,20.2 5.2,5.2 12.3,8.5 20.2,8.5l28.6 0 0 -28.7c0,-7.8 -3.2,-15 -8.4,-20.2 -5.2,-5.2 -12.4,-8.4 -20.2,-8.4z"/>
    <path fill="#FF99CC" d="M337.9 146l0 -28.6c0,-7.9 3.2,-15 8.4,-20.2 5.2,-5.2 12.3,-8.5 20.2,-8.5l28.6 0 0 28.7c0,7.8 -3.2,15 -8.4,20.2 -5.2,5.2 -12.4,8.4 -20.2,8.4l-28.6 0zm28.6 48.4c21.2,0 40.5,-8.6 54.4,-22.6 14,-13.9 22.7,-33.2 22.7,-54.4l0 -77.1 -77.1 0c-21.3,0 -40.5,8.6 -54.5,22.6 -14,14 -22.6,33.2 -22.6,54.5l0 28.6 48.5 0 0 48.4 28.6 0z"/>
    <path fill="#FF99CC" d="M337.9 323.4l0 -28.7c0,-7.8 3.2,-15 8.4,-20.2 5.2,-5.2 12.3,-8.4 20.2,-8.4l28.6 0 0 28.6c0,7.9 -3.2,15 -8.4,20.2 -5.2,5.2 -12.4,8.5 -20.2,8.5l-28.6 0zm28.6 48.4c21.2,0 40.5,-8.6 54.4,-22.6 14,-14 22.7,-33.2 22.7,-54.5l0 -77.1 -77.1 0c-21.3,0 -40.5,8.7 -54.5,22.7 -14,13.9 -22.6,33.2 -22.6,54.4l0 28.7 48.5 0 0 48.4 28.6 0z"/>
   </g>
  </g>
 </g>
</svg>
