<?xml version="1.0" encoding="UTF-8"?>
<!DOCTYPE svg PUBLIC "-//W3C//DTD SVG 1.0//EN" "http://www.w3.org/TR/2001/REC-SVG-20010904/DTD/svg10.dtd">
<!-- Creator: CorelDRAW 2020 (64-Bit) -->
<svg xmlns="http://www.w3.org/2000/svg" xml:space="preserve" width="134px" height="191px" version="1.0" shape-rendering="geometricPrecision" text-rendering="geometricPrecision" image-rendering="optimizeQuality" fill-rule="evenodd" clip-rule="evenodd"
viewBox="0 0 118.5 168.5"
 xmlns:xlink="http://www.w3.org/1999/xlink"
 xmlns:xodm="http://www.corel.com/coreldraw/odm/2003">
 <g id="Capa_x0020_1">
  <metadata id="CorelCorpID_0Corel-Layer"/>
  <g id="_2427180233040">
   <path fill="#FF99CC" fill-rule="nonzero" d="M8.6 63.1l18.8 0c3.6,0 7.1,0.7 10.2,2l0 -10.2 -10.2 0c-7.5,0 -14.4,-3.1 -19.3,-8.1 -5,-5 -8.1,-11.8 -8.1,-19.4l0 -27.4 8.6 0 18.8 0c7.6,0 14.4,3.1 19.4,8.1 5,4.9 8.1,11.8 8.1,19.3l0 9.1 0 18.4 0 35.7 0 13.3c0,13.1 5.3,24.9 13.9,33.5 8.5,8.6 20.4,13.9 33.4,13.9l7.7 0 0 17.2 -7.7 0c-17.8,0 -33.9,-7.2 -45.6,-18.9 -8.6,-8.5 -14.7,-19.4 -17.4,-31.6l-11.8 0c-7.5,0 -14.4,-3.1 -19.3,-8.1 -5,-4.9 -8.1,-11.8 -8.1,-19.3l0 -27.5 8.6 0zm18.8 -45.9l-10.2 0 0 10.2c0,2.8 1.2,5.4 3,7.2 1.9,1.9 4.4,3 7.2,3l10.2 0 0 -1.1 0 -9.1c0,-2.8 -1.1,-5.3 -3,-7.2 -1.8,-1.8 -4.4,-3 -7.2,-3zm0 63.2l-10.2 0 0 10.2c0,2.7 1.2,5.3 3,7.1 1.9,1.9 4.4,3 7.2,3l10.2 0 0 -10.1c0,-2.8 -1.1,-5.4 -3,-7.2 -1.8,-1.9 -4.4,-3 -7.2,-3z"/>
   <path fill="#FF99CC" d="M80.9 37.6l0 -10.2c0,-2.8 1.1,-5.3 3,-7.2 1.8,-1.8 4.4,-3 7.2,-3l10.1 0 0 10.2c0,2.8 -1.1,5.4 -2.9,7.2 -1.9,1.9 -4.4,3 -7.2,3l-10.2 0zm10.2 17.3c7.5,0 14.4,-3.1 19.3,-8.1 5,-5 8.1,-11.8 8.1,-19.4l0 -27.4 -27.4 0c-7.6,0 -14.5,3.1 -19.4,8.1 -5,4.9 -8.1,11.8 -8.1,19.3l0 10.2 17.3 0 0 17.3 10.2 0z"/>
   <path fill="#FF99CC" d="M80.9 100.7l0 -10.1c0,-2.8 1.1,-5.4 3,-7.2 1.8,-1.9 4.4,-3 7.2,-3l10.1 0 0 10.2c0,2.7 -1.1,5.3 -2.9,7.1 -1.9,1.9 -4.4,3 -7.2,3l-10.2 0zm10.2 17.3c7.5,0 14.4,-3.1 19.3,-8.1 5,-4.9 8.1,-11.8 8.1,-19.3l0 -27.5 -27.4 0c-7.6,0 -14.5,3.1 -19.4,8.1 -5,4.9 -8.1,11.8 -8.1,19.4l0 10.1 17.3 0 0 17.3 10.2 0z"/>
  </g>
 </g>
</svg>
