<?xml version="1.0" encoding="UTF-8"?>
<!DOCTYPE svg PUBLIC "-//W3C//DTD SVG 1.0//EN" "http://www.w3.org/TR/2001/REC-SVG-20010904/DTD/svg10.dtd">
<!-- Creator: CorelDRAW 2020 (64-Bit) -->
<svg xmlns="http://www.w3.org/2000/svg" xml:space="preserve" width="268px" height="268px" version="1.0" shape-rendering="geometricPrecision" text-rendering="geometricPrecision" image-rendering="optimizeQuality" fill-rule="evenodd" clip-rule="evenodd"
viewBox="0 0 1285.4 1285.4"
 xmlns:xlink="http://www.w3.org/1999/xlink"
 xmlns:xodm="http://www.corel.com/coreldraw/odm/2003">
 <g id="Capa_x0020_1">
  <metadata id="CorelCorpID_0Corel-Layer"/>
  <g id="_1373143135824">
   <rect fill="none" width="1285.4" height="1285.4"/>
   <g>
    <path fill="#FF99CC" fill-rule="nonzero" d="M642.7 421.2c61.1,0 116.5,24.8 156.6,64.9 40,40.1 64.8,95.4 64.8,156.6 0,61.1 -24.8,116.5 -64.8,156.6 -40.1,40 -95.5,64.8 -156.6,64.8 -61.2,0 -116.5,-24.8 -156.6,-64.8 -40.1,-40.1 -64.9,-95.5 -64.9,-156.6 0,-61.2 24.8,-116.5 64.9,-156.6 40.1,-40.1 95.4,-64.9 156.6,-64.9zm76.1 145.4c-19.5,-19.5 -46.4,-31.6 -76.1,-31.6 -29.8,0 -56.7,12.1 -76.1,31.6 -19.5,19.4 -31.6,46.3 -31.6,76.1 0,29.7 12.1,56.6 31.6,76.1 19.4,19.5 46.3,31.5 76.1,31.5 29.7,0 56.6,-12 76.1,-31.5 19.5,-19.5 31.5,-46.4 31.5,-76.1 0,-29.8 -12,-56.7 -31.5,-76.1z"/>
    <path fill="#FF99CC" d="M321.1 964.3c88.5,88.4 205,132.7 321.6,132.7 116.5,0 233.1,-44.3 321.6,-132.7l241.1 -241.2 -80.5 -80.4 -241.1 241.1c-66.3,66.3 -153.7,99.4 -241.1,99.4 -87.5,0 -174.9,-33.1 -241.2,-99.4l-241.1 -241.1 -80.4 80.4 241.1 241.2z"/>
    <path fill="#FF99CC" d="M160.4 642.7l241.1 -241.2c66.3,-66.2 153.7,-99.3 241.2,-99.3 87.4,0 174.8,33.1 241.1,99.3l241.1 241.2 80.5 -80.5 -241.1 -241.1c-88.5,-88.5 -205.1,-132.7 -321.6,-132.7 -116.6,0 -233.1,44.2 -321.6,132.7l-241.1 241.1 80.4 80.5z"/>
   </g>
  </g>
 </g>
</svg>
