<?xml version="1.0" encoding="UTF-8"?>
<!DOCTYPE svg PUBLIC "-//W3C//DTD SVG 1.0//EN" "http://www.w3.org/TR/2001/REC-SVG-20010904/DTD/svg10.dtd">
<!-- Creator: CorelDRAW 2020 (64-Bit) -->
<svg xmlns="http://www.w3.org/2000/svg" xml:space="preserve" width="199px" height="160px" version="1.0" shape-rendering="geometricPrecision" text-rendering="geometricPrecision" image-rendering="optimizeQuality" fill-rule="evenodd" clip-rule="evenodd"
viewBox="0 0 507.2 409.5"
 xmlns:xlink="http://www.w3.org/1999/xlink"
 xmlns:xodm="http://www.corel.com/coreldraw/odm/2003">
 <g id="Capa_x0020_1">
  <metadata id="CorelCorpID_0Corel-Layer"/>
  <g id="_2426759540400">
   <path fill="#FF99CC" fill-rule="nonzero" d="M253.6 105c27.6,0 52.5,11.1 70.6,29.2 18.1,18.1 29.2,43 29.2,70.6 0,27.5 -11.1,52.5 -29.2,70.5 -18.1,18.1 -43,29.3 -70.6,29.3 -27.5,0 -52.5,-11.2 -70.6,-29.3 -18,-18 -29.2,-43 -29.2,-70.5 0,-27.6 11.2,-52.5 29.2,-70.6 18.1,-18.1 43.1,-29.2 70.6,-29.2zm34.3 65.5c-8.7,-8.8 -20.9,-14.2 -34.3,-14.2 -13.4,0 -25.5,5.4 -34.3,14.2 -8.8,8.7 -14.2,20.9 -14.2,34.3 0,13.4 5.4,25.5 14.2,34.3 8.8,8.8 20.9,14.2 34.3,14.2 13.4,0 25.6,-5.4 34.3,-14.2 8.8,-8.8 14.2,-20.9 14.2,-34.3 0,-13.4 -5.4,-25.6 -14.2,-34.3z"/>
   <path fill="#FF99CC" d="M108.7 349.7c39.9,39.9 92.4,59.8 144.9,59.8 52.5,0 105.1,-19.9 145,-59.8l108.6 -108.7 -36.2 -36.2 -108.7 108.6c-29.9,29.9 -69.3,44.8 -108.7,44.8 -39.4,0 -78.8,-14.9 -108.7,-44.8l-108.6 -108.6 -36.3 36.2 108.7 108.7z"/>
   <path fill="#FF99CC" d="M36.3 204.8l108.6 -108.7c29.9,-29.9 69.3,-44.8 108.7,-44.8 39.4,0 78.8,14.9 108.7,44.8l108.7 108.7 36.2 -36.3 -108.6 -108.7c-39.9,-39.9 -92.5,-59.8 -145,-59.8 -52.5,0 -105,19.9 -144.9,59.8l-108.7 108.7 36.3 36.3z"/>
  </g>
 </g>
</svg>
