<?xml version="1.0" encoding="UTF-8"?>
<!DOCTYPE svg PUBLIC "-//W3C//DTD SVG 1.0//EN" "http://www.w3.org/TR/2001/REC-SVG-20010904/DTD/svg10.dtd">
<!-- Creator: CorelDRAW 2020 (64-Bit) -->
<svg xmlns="http://www.w3.org/2000/svg" xml:space="preserve" width="385px" height="385px" version="1.0" shape-rendering="geometricPrecision" text-rendering="geometricPrecision" image-rendering="optimizeQuality" fill-rule="evenodd" clip-rule="evenodd"
viewBox="0 0 349.1 349.1"
 xmlns:xlink="http://www.w3.org/1999/xlink"
 xmlns:xodm="http://www.corel.com/coreldraw/odm/2003">
 <g id="Capa_x0020_1">
  <metadata id="CorelCorpID_0Corel-Layer"/>
  <circle fill="#7D68B2" cx="174.6" cy="174.6" r="174.6"/>
  <g id="_2144313268816">
   <path fill="white" d="M169.8 165.6l10.3 -10.3 -1.6 -1.6 -12.4 -12.4 -14 14 2.7 2.7 2.8 2.8 8.4 8.4 0.1 0.1 0.1 -0.1 3.6 -3.6z"/>
   <path fill="white" d="M196.4 126.3c0,6.9 5.6,12.5 12.6,12.5 6.9,0 12.5,-5.6 12.5,-12.5l-25.1 0z"/>
   <path fill="white" d="M252.8 207.9l0 0zm-132 32.5l0 12.3 29 0c1.9,0 3.7,0.4 5.4,1 1.7,0.7 3.2,1.8 4.5,3.1 1.4,1.3 2.4,2.9 3.1,4.6 0.7,1.6 1.1,3.4 1.1,5.4l0 2.2c0,5.6 1.1,11 3.2,15.9 2.1,5.1 5.2,9.7 9,13.5 0,0.1 0.1,0.1 0.1,0.1 3.9,3.9 8.5,7 13.5,9.1 5,2 10.4,3.2 16,3.2 3,0 6,-0.4 9,-1.1 2.9,-0.6 5.8,-1.6 8.6,-2.9 2.8,-1.3 5.4,-2.9 7.8,-4.7 2.4,-1.9 4.6,-4 6.6,-6.3 1.5,-1.8 2.9,-3.8 4.1,-6 1.2,-2.1 2.3,-4.3 3.1,-6.6 0.8,-2.3 1.5,-4.7 1.9,-7 0.4,-2.4 0.6,-4.8 0.6,-7.2l0 -25.9 0.2 -1.1 0 -0.4 0.4 -1.2 0.2 -0.5c0.5,-1.1 1,-1.8 1.7,-2.7l0.5 -0.5 1 -0.9 1.1 -0.7 1.2 -0.6c0.4,-0.1 0.7,-0.2 1.1,-0.3l0 -0.1 1.3 -0.2c9,-0.4 12.7,0 21.8,0 6.3,0 12,-2.6 16.1,-6.7l0 0c4.2,-4.2 6.7,-9.9 6.7,-16.2l0 -3.4 -12.3 0 0 -12.3 -31 0c-0.9,0 -1.8,0.1 -3,0.1 -1.1,0.1 -2.1,0.2 -3.1,0.4l0 0c-1.2,0.1 -2.2,0.3 -3.1,0.5l0 0c-0.9,0.1 -1.9,0.4 -3,0.6 -1.1,0.3 -2.1,0.6 -2.9,0.9 -1,0.3 -2,0.7 -2.9,1 -0.1,0.1 -0.1,0.1 -0.1,0.1 -0.8,0.3 -1.7,0.7 -2.7,1.2 -0.4,0.2 -0.7,0.3 -1,0.5 -0.7,0.3 -1.3,0.6 -1.8,0.9 -1,0.6 -2,1.2 -2.9,1.8 -0.9,0.6 -1.9,1.3 -2.8,2 -0.9,0.7 -1.8,1.4 -2.6,2.1 -0.7,0.5 -1.3,1.1 -2,1.8 -0.2,0.2 -0.3,0.3 -0.5,0.5 -0.1,0.1 -0.2,0.2 -0.3,0.3 -0.5,0.6 -1.1,1.2 -1.6,1.8 0,0 -1.7,1.9 -1.8,2.1l-1.4 1.8 -1.3 2c-0.3,0.4 -0.7,1.1 -1.2,1.9 -0.4,0.8 -0.8,1.5 -1.1,2 -0.4,0.9 -0.9,1.8 -1.3,2.8 -0.4,0.9 -0.8,1.9 -1.1,2.9 -0.4,0.8 -0.7,1.8 -1,2.8 -0.3,1 -0.5,2 -0.8,3 -0.2,1.1 -0.4,2 -0.5,2.7 -0.2,0.9 -0.3,1.8 -0.4,2.6 -0.1,0.9 -0.2,1.9 -0.2,2.8 -0.1,1 -0.1,1.9 -0.1,2.6l0 25.2c0,0.3 0,0.5 0,0.7l-0.2 0.4 -0.2 0.4c0,0.2 -0.2,0.4 -0.3,0.6 -0.2,0.2 -0.4,0.4 -0.6,0.5 -0.2,0.2 -0.4,0.3 -0.6,0.4 -0.1,0 -0.3,0.1 -0.5,0.1l0 0c-0.2,0.1 -0.5,0.1 -0.8,0.1 -1,0 -1.8,-0.3 -2.3,-0.9l-0.1 0c-0.3,-0.3 -0.5,-0.7 -0.6,-1 -0.2,-0.4 -0.3,-0.8 -0.3,-1.3l0 -0.6c0,-7.1 -1.4,-13.9 -4,-20.1 -2.6,-6.5 -6.6,-12.3 -11.4,-17.1 -4.8,-4.8 -10.6,-8.8 -17.1,-11.4 -6.2,-2.6 -13,-4 -20.1,-4l-29 0 0 12.3 0.1 0 28.9 0c5.5,0 10.7,1.1 15.4,3 4.9,2.1 9.4,5.1 13.1,8.8 3.7,3.7 6.7,8.2 8.8,13.1 1.9,4.7 3,9.9 3,15.4l0 0.6c0,2.1 0.4,4.1 1.2,5.9 0.8,1.9 1.9,3.6 3.3,5l0.1 0.1c2.8,2.8 6.6,4.5 11,4.5 1.1,0 2.2,-0.1 3.3,-0.4 1.2,-0.2 2.2,-0.6 3.2,-1 1.1,-0.5 2,-1.1 2.9,-1.8 1,-0.7 1.8,-1.5 2.5,-2.4 0.5,-0.6 1.1,-1.4 1.5,-2.2l0 0c0.5,-0.7 0.9,-1.5 1.2,-2.4 0.3,-0.9 0.5,-1.7 0.7,-2.7 0.1,-0.9 0.2,-1.8 0.2,-2.6l0 -25.2c0,-0.8 0,-1.4 0,-1.9 0.1,-0.6 0.1,-1.3 0.2,-2.1 0.1,-0.6 0.2,-1.2 0.3,-1.9 0.1,-0.8 0.3,-1.5 0.4,-2.1 0.2,-0.7 0.4,-1.4 0.6,-2.2l0 0c0.2,-0.7 0.4,-1.4 0.7,-2.2 0.3,-0.7 0.6,-1.4 0.9,-2.1 0.3,-0.7 0.6,-1.4 0.9,-2l0.9 -1.6 0.8 -1.4 1 -1.5c0.9,-1.1 1.5,-1.8 2.4,-2.9 0.9,-1 0.6,-0.6 0.8,-0.9l0.6 -0.6c0.5,-0.5 1.1,-1.1 1.9,-1.8l0 0c0.6,-0.6 1.3,-1.1 1.9,-1.6 0.6,-0.4 1.3,-0.9 2,-1.4 0.8,-0.5 1.5,-0.9 2.3,-1.4l0 0c0.9,-0.4 1.5,-0.8 2.1,-1.1 0.6,-0.2 1.2,-0.5 2,-0.9 0.7,-0.2 1.4,-0.5 2.1,-0.7 0.9,-0.3 1.6,-0.5 2.3,-0.7 0.6,-0.1 1.3,-0.3 2.2,-0.5 0.8,-0.1 1.6,-0.3 2.3,-0.3 1,-0.2 1.8,-0.2 2.5,-0.3 0.7,0 1.4,-0.1 2.1,-0.1l31 0 0 3.4c0,2.9 -1.1,5.6 -3,7.5 -2,1.9 -4.6,3.1 -7.5,3.1l-20.5 0 -1.5 0c-0.5,0 -1,0.1 -1.4,0.1l-1.3 0.2 -1.4 0.4 0 -0.1c-0.3,0.1 -0.8,0.3 -1.3,0.5 -1,0.3 -1.8,0.6 -2.7,1l-1.2 0.7c-0.5,0.2 -1,0.5 -1.4,0.8l-1.2 0.9c-0.5,0.4 -0.9,0.7 -1.2,1 -0.4,0.3 -0.8,0.7 -1.2,1 -0.9,1 -1.5,1.8 -2.4,2.8l-0.5 0.9c-0.4,0.6 -0.7,1.2 -1.1,1.8 -0.4,0.9 -0.8,1.7 -1.1,2.6l-0.5 1.3c-0.2,0.9 -0.4,1.7 -0.6,2.6l-0.1 1.2 -0.1 1.2 -0.1 1.3 0 25.2c0,1.7 -0.1,3.4 -0.4,5 -0.3,1.8 -0.8,3.4 -1.3,5 -0.6,1.7 -1.4,3.3 -2.2,4.7 -0.8,1.4 -1.8,2.8 -2.9,4.2 -1.4,1.6 -3,3.1 -4.7,4.4 -1.7,1.3 -3.5,2.5 -5.5,3.4 -1.9,0.9 -4,1.6 -6.1,2.1 -2,0.4 -4.1,0.6 -6.3,0.6 -4,0 -7.8,-0.7 -11.2,-2.2 -3.7,-1.5 -6.9,-3.7 -9.6,-6.4l-0.1 0c-2.7,-2.8 -4.9,-6 -6.4,-9.6 -1.4,-3.5 -2.2,-7.3 -2.2,-11.2l0 -2.2c0,-3.6 -0.7,-7 -2,-10.1 -1.4,-3.3 -3.3,-6.2 -5.8,-8.6 -2.4,-2.4 -5.3,-4.4 -8.5,-5.7 -3.2,-1.3 -6.6,-2 -10.1,-2l-29 0z"/>
   <path fill="white" d="M258.1 211.5c0,4.3 3.5,7.7 7.7,7.7 4.3,0 7.7,-3.4 7.7,-7.7l-15.4 0z"/>
   <path fill="white" d="M101.4 206.1c-4.6,0.1 -8.7,2 -11.8,5.1 -3.1,3.1 -5,7.4 -5,12 0,4.8 1.9,9 5,12.1l0.1 0c3.1,3.1 7.3,5.1 12,5.1l19.1 0 0 -12.3 0 0 -19.1 0c-1.3,0 -2.5,-0.6 -3.4,-1.5 -0.8,-0.8 -1.4,-2 -1.4,-3.4 0,-1.3 0.6,-2.5 1.4,-3.4l0 0c0.8,-0.8 1.9,-1.3 3.1,-1.4l0 -12.3z"/>
   <path fill="white" d="M166.1 176.5l-8.5 8.9c2.7,2.2 5.6,4.2 8.5,6.1 5.7,3.7 11.7,6.7 17.8,9.2 2.5,0.9 4.9,1.8 7.4,2.6 0.5,0.2 1.1,0.4 1.7,0.6 9.6,2.9 19,4.3 26.8,4.2l0 -4.8 0 -7.4c-7.4,0.2 -17,-1.5 -26.8,-5 -1.5,-0.5 -3,-1 -4.5,-1.6 -7.9,-3.2 -15.7,-7.5 -22.4,-12.8z"/>
   <path fill="white" d="M99.8 179.6c-11.1,0.4 -21.2,5.1 -28.6,12.5 -7.7,7.7 -12.5,18.4 -12.5,30.2 0,11.7 4.8,22.4 12.5,30.1 7.8,7.8 18.4,12.6 30.2,12.6l19.4 0 0 -12.3 -19.4 0c-8.4,0 -16,-3.4 -21.5,-9 -5.5,-5.5 -8.9,-13.1 -8.9,-21.4 0,-8.4 3.4,-16 8.9,-21.5 5.2,-5.2 12.2,-8.5 19.9,-8.9l0 -12.3z"/>
   <path fill="white" d="M166.1 122.7l0 12.1c9.9,-0.4 18.8,-5 24.8,-12.1 0.7,-0.8 1.4,-1.7 2.1,-2.7 3.9,-5.5 6.1,-12.3 6.1,-19.6 0,-1.6 0.2,-3.1 0.5,-4.5 1.8,-8.7 8.7,-15.7 17.7,-17.3 0.9,1.1 1.7,2.3 2.5,3.5 2.8,4.2 5.1,8.9 6.9,13.8 3.2,8.4 5,17.7 6.2,26.8 1.1,9.3 1.4,18.6 1.5,26.9l-14.6 0 0 26.9 0 19.4 11.4 0 0 -19.4 0 -14.3 15.5 -0.2 0 -0.6c0,-3.9 0,-7.8 -0.1,-11.8 -0.1,-8.9 -0.4,-17.9 -1.4,-26.9 -1,-9 -2.6,-18 -5.5,-26.8 -3.3,-10.3 -8,-19.3 -14.3,-26.9 -1.8,-2.1 -3.6,-4 -5.6,-5.9 -5.6,-5.4 -12.2,-9.9 -19.9,-13.4 -2.3,-1.1 -4.6,-2 -6.9,-2.9 -7.9,-2.8 -16.1,-4.3 -24.4,-4.6l-2.5 0 -2.8 0c-8.2,0.3 -16.4,1.8 -24.1,4.8 -9.2,3.6 -19,9.4 -26.8,16.9 -1.7,1.6 -3.4,3.3 -4.9,5.1 -4,4.9 -7.3,10.2 -9.2,16.1 -3.4,0.4 -6.6,0.6 -9.9,1.6 -1,0.2 -1.9,0.6 -2.9,0.9 -5,1.9 -9.6,4.7 -13.5,8.3 -0.4,0.4 -0.9,0.8 -1.3,1.2 -3.9,3.9 -7.1,8.7 -9.2,14 -1.4,3.6 -2.3,7.6 -2.7,11.6 -0.1,1.2 -0.1,2.3 -0.1,3.5 0,5.3 1,10.4 2.8,15.1 1.2,3 2.7,5.7 4.5,8.3 1.4,2 3,3.9 4.7,5.6 4.2,4.2 9.2,7.5 14.8,9.6 1,0.3 1.9,0.6 2.9,0.9 3.6,1 7.4,1.6 11.4,1.6l0 -12.3c-4.1,0 -7.9,-0.8 -11.4,-2.3 -1,-0.5 -1.9,-0.9 -2.9,-1.5 -0.8,-0.5 -1.7,-1 -2.5,-1.6 -1.3,-0.9 -2.5,-1.9 -3.6,-3l0 0c-1.3,-1.3 -2.4,-2.7 -3.4,-4.2l0.4 -1.6c0.8,-3.2 2.7,-6.1 5.3,-8.1 1.2,-1 2.5,-1.7 3.8,-2.1 1,-0.4 1.9,-0.6 2.9,-0.8 3.7,-0.7 7.6,-0.5 11.4,-0.5l0 12.3c4.4,0 8,0 12.6,-1.4 5.7,-1.8 10.7,-5.2 14.5,-9.7l7.5 9.6c0,0.3 0,0.6 0,1 0,2.9 -0.5,5.8 -1.5,8.5 -1.3,3.7 -3.4,7.2 -6.2,10l0 0c-3.8,3.8 -8.8,6.4 -14.3,7.3 -2.8,0.5 -8.5,0.5 -12.6,0.4l0 9.2 0 3.1 12.6 -0.2c3.9,-0.5 7.6,-1.5 11,-2.9 6.4,-2.8 11.8,-7.2 15.8,-12.7 3.1,-4.2 5.3,-9 6.5,-14.2 0.6,-2.7 1,-5.6 1,-8.5 0,-9.4 6.7,-16.9 15.5,-18.4 1.3,-0.1 2.6,-0.2 3.9,-0.2l0 0.2zm-1.4 -12.5c-9.8,0.2 -18.7,4.9 -24.3,12.5 -0.4,0.6 -0.8,1.1 -1.2,1.7 -0.2,0.4 -0.4,0.7 -0.6,1.1l-2.2 -2.8 -20.9 -26.8 -3.1 -4 -2.4 -3.1c0.6,-1.9 1.4,-3.7 2.4,-5.4 3,-5.4 7.6,-10.3 12.8,-14.4 4.4,-3.5 9.2,-6.4 13.9,-8.6 -0.8,3.3 -0.3,6 -1.2,8.6 -0.4,1.4 -1.1,2.7 -2.6,4.1 -1.9,2 -4.6,3.2 -7.7,3.2l0 12.3c4.3,0 8.2,-1.1 11.6,-3.1 6,-3.4 10.3,-9.4 11.4,-16.5 0.1,-1.1 0.2,-2.3 0.2,-3.6 0,-5.5 4.4,-10.2 9.4,-10.7l5.9 0.1 8.2 0.2c-4,3.9 -6.6,8.7 -7.8,14 -0.2,0.6 -0.3,1.2 -0.4,1.8 -0.2,1.5 -0.4,3.1 -0.4,4.7 0,9.2 -7.4,16.6 -16.6,16.6l0 3.8 0 8.5c6.4,0 12.2,-2.1 17,-5.5 1.2,-0.9 2.4,-1.9 3.5,-3 5.2,-5.2 8.4,-12.5 8.4,-20.4 0,-2.3 0.5,-4.5 1.3,-6.5 0.9,-1.9 2.1,-3.7 3.6,-5.3 2.2,-2.2 5,-3.8 8.2,-4.5l1.9 0.8 1.7 0.8c4.6,2.1 9,4.8 12.9,8 -0.2,0 -0.4,0.1 -0.6,0.2 -5.8,2.7 -10.6,6.7 -14,11.8 -3.1,4.4 -5.2,9.6 -5.9,15.1 -0.2,1.5 -0.3,3 -0.3,4.5 0,11.7 -9.1,21.3 -20.7,22.1l0 -12.3 -1.4 0zm-52.3 1.7l6.7 8.6c-0.5,0.8 -1,1.6 -1.6,2.2 -1.5,1.7 -3.2,3.1 -5.1,4.2 -2.8,1.5 -6,2.4 -9.3,2.4l-3.3 0 0 -6.6 0 -5.7c-4.1,0.1 -7.8,0 -11.4,0.4 -1,0.1 -1.9,0.2 -2.9,0.4 -3.7,0.7 -7.3,2.1 -11,4.9 -0.1,0.1 -0.3,0.2 -0.4,0.3 -1.1,0.9 -2.1,1.9 -3.1,2.9 0,-1.1 0.1,-2.1 0.2,-3.2 0.8,-6.5 3.8,-12.4 8.2,-16.9 1.8,-1.8 3.9,-3.4 6.1,-4.7 1,-0.5 1.9,-1 2.9,-1.4 3.5,-1.5 7.3,-2.3 11.4,-2.3l1.3 0 11.3 14.5z"/>
  </g>
 </g>
</svg>
